<svg width="1440" height="559" viewBox="0 0 1440 559" fill="none" xmlns="http://www.w3.org/2000/svg">
<g clip-path="url(#clip0_3075_12761)">
<path d="M328.405 124.649V193.759C328.405 194.075 334.753 193.444 334.753 193.759V210.244C335.684 210.401 339.6 210.022 339.821 210.244C340.089 210.512 339.616 216.322 339.821 217.491C339.695 218.344 334.737 217.601 334.737 217.854V230.533H353.116V224.186H358.832V348.78C359.005 350.059 362.637 348.859 364.247 349.049C364.879 349.128 366.442 349.349 366.442 350.043V368.754H371.511V252.733H380.384V245.122H421.595L421.563 252.433L430.484 252.733C430.374 261.496 430.611 270.291 430.5 279.07C430.216 304.065 431.1 329.343 430.5 354.528C430.437 357.007 428.732 367.317 430.421 368.486C431.305 369.086 433.168 368.659 434.274 368.77V353.865C434.274 352.396 438.711 353.154 438.711 352.917V186.18H496.405C496.39 188.028 495.805 189.638 495.742 191.533C494.858 220.08 496.516 249.686 496.437 278.454C496.374 302.422 495.126 326.659 495.742 350.738C495.6 353.565 498.079 352.949 500.211 352.933V337.712H506.558L507.189 282.559H537.616V274.317H545.858V262.901C547.405 262.333 552.49 262.08 553.911 262.759C558.6 265.017 564.742 272.154 569.321 275.265V337.712C569.321 338.028 575.668 337.396 575.668 337.712V352.933H579.474L578.842 204.575H590.258V195.07H637.816V204.575H649.232V352.933H656.842V363.07H662.542V274.301H670.153C670.532 271.886 669.316 266.865 670.784 265.112C676.263 262.586 682.737 255.891 688.074 253.87C689.937 253.159 694.026 253.601 694.247 253.38C694.547 253.065 693.932 246.07 694.247 245.77C694.484 245.533 699.521 245.944 700.595 245.77V200.754H705.032V245.77C706.105 245.944 711.126 245.517 711.379 245.77C711.679 246.07 711.063 253.08 711.379 253.38C711.695 253.68 716.416 252.859 717.553 253.87L734.842 265.112C736.311 266.865 735.095 271.87 735.474 274.301H743.084V363.054H747.521V352.917C747.521 352.665 752.589 353.17 752.589 352.917V254.012H763.058C763.405 254.012 764.447 255.022 765.268 254.644C766.089 254.075 764.179 245.138 766.216 245.138H802.042C802.374 247.033 801.332 253.412 802.658 254.375C803.179 254.754 815.353 252.765 815.353 254.959V352.917C816.726 353.107 824.226 352.27 824.226 353.865V373.838H837.537V355.459C835.547 356.375 833.337 355.57 831.237 355.412C830.1 347.58 832.137 344.865 837.521 339.907C872.4 307.886 958.326 307.744 993.505 339.275C994.547 340.207 1000.47 346.222 1000.47 346.886V356.075C1000.47 356.391 994.121 355.759 994.121 356.075V373.822H1011.87V359.233C1014 359.296 1016.24 358.838 1018.22 359.865V320.549H1035.96V298.996H1042.94V305.975C1044.46 305.722 1050.09 306.701 1050.39 305.043L1050.55 260.312H1093.66V305.959C1105.18 308.201 1099.83 300.417 1101.27 298.98C1101.52 298.728 1107.11 299.17 1108.25 298.98V320.533H1125.36V359.201H1140.27C1142.78 359.201 1139.57 371.249 1141.53 371.249H1153.58C1153.77 371.249 1154.48 372.117 1155.16 371.88V335.107L1200.17 349.049V376.949H1212.22V558.717L0 559.033V376.317H8.2421V308.486L45.6474 320.217V372.528H50.0842L50.3684 253.301C51.6474 251.565 69.1263 253.554 72.2684 252.701V241.286H95.7316V252.701H116.968C116.968 252.701 117.916 253.586 117.916 253.649V372.528H124.895V356.044H136.311V257.77H147.095V246.038C147.095 245.486 153.947 239.043 155.037 238.128C162.316 232.001 172.816 225.97 181.532 222.149C184.058 221.043 197.132 217.08 197.7 216.433C198.363 215.675 198.868 209.549 197.811 208.301H207.947V356.028C208.879 356.186 212.795 355.807 213.016 356.028C213.3 356.312 212.732 361.459 213.016 361.743C213.316 362.044 220.847 362.122 221.195 360.733L220.642 283.112H247.263V271.065H253.611V283.112H280.232V361.728H285.932V349.996C285.932 348.291 292.911 349.412 292.911 349.049V224.154H298.626V230.501H317.653V218.454C317.653 218.17 312.063 218.959 311.937 218.091C312.158 216.859 311.668 210.496 311.937 210.212C312.174 209.975 316.642 210.386 317.653 210.212V193.728C317.653 193.443 323.353 194.012 323.353 193.728V124.617H328.421L328.405 124.649Z" fill="#9ED3DA"/>
<path d="M2089.94 124.649V193.759C2089.94 194.075 2083.59 193.444 2083.59 193.759V210.244C2082.66 210.402 2078.75 210.023 2078.53 210.244C2078.26 210.512 2078.73 216.323 2078.53 217.491C2078.65 218.344 2083.61 217.602 2083.61 217.854V230.533H2065.23V224.186H2059.52V348.781C2059.34 350.059 2055.71 348.859 2054.1 349.049C2053.47 349.128 2051.9 349.349 2051.9 350.044V368.754H2046.84V252.733H2037.96V245.123H1996.75L1996.78 252.433L1987.86 252.733C1987.97 261.496 1987.74 270.291 1987.85 279.07C1988.13 304.065 1987.25 329.344 1987.85 354.528C1987.91 357.007 1989.62 367.317 1987.93 368.486C1987.04 369.086 1985.18 368.659 1984.07 368.77V353.865C1984.07 352.396 1979.64 353.154 1979.64 352.917V186.181H1921.94C1921.96 188.028 1922.54 189.638 1922.6 191.533C1923.49 220.081 1921.83 249.686 1921.91 278.454C1921.97 302.423 1923.22 326.659 1922.6 350.738C1922.75 353.565 1920.27 352.949 1918.14 352.933V337.712H1911.79L1911.16 282.544H1880.73V274.302H1872.49V262.886C1870.94 262.317 1865.86 262.065 1864.44 262.744C1859.75 265.002 1853.6 272.138 1849.03 275.249V337.696C1849.03 338.012 1842.68 337.381 1842.68 337.696V352.917H1838.87L1839.5 204.559H1828.09V195.054H1780.53V204.559H1769.12V352.917H1761.5V363.054H1755.8V274.286H1748.19C1747.82 271.854 1749.03 266.849 1747.56 265.096C1742.08 262.57 1735.61 255.875 1730.27 253.854C1728.41 253.144 1724.32 253.586 1724.1 253.365C1723.8 253.049 1724.42 246.054 1724.1 245.754C1723.86 245.517 1718.83 245.928 1717.75 245.754V200.738H1713.32V245.754C1712.24 245.928 1707.22 245.502 1706.97 245.754C1706.67 246.054 1707.28 253.065 1706.97 253.365C1706.65 253.665 1701.93 252.844 1700.79 253.854L1683.5 265.096C1682.04 266.849 1683.25 271.854 1682.87 274.286H1675.26V363.038H1670.83V352.902C1670.83 352.649 1665.76 353.154 1665.76 352.902V253.996H1655.29C1654.94 253.996 1653.9 255.007 1653.08 254.628C1652.26 254.059 1654.17 245.123 1652.13 245.123H1616.3C1615.97 247.017 1617.02 253.396 1615.69 254.359C1615.17 254.738 1602.99 252.749 1602.99 254.944V352.902C1601.62 353.091 1594.12 352.254 1594.12 353.849V373.823H1580.81V355.444C1582.8 356.359 1585.01 355.554 1587.11 355.396C1588.25 347.565 1586.21 344.849 1580.83 339.891C1545.95 307.87 1460.02 307.728 1424.84 339.259C1423.8 340.191 1417.88 346.207 1417.88 346.87V356.059C1417.88 356.375 1424.23 355.744 1424.23 356.059V373.807H1406.48V359.217C1404.35 359.281 1402.1 358.823 1400.13 359.849V320.533H1382.38V298.981H1375.4V305.959C1373.9 305.707 1368.25 306.686 1367.97 305.028L1367.81 260.296H1324.7V305.944C1313.18 308.186 1318.53 300.402 1317.09 298.965C1316.84 298.712 1311.25 299.154 1310.12 298.965V320.517H1293V359.186H1278.09C1275.58 359.186 1278.79 371.233 1276.83 371.233H1264.78C1264.59 371.233 1263.88 372.102 1263.2 371.865V335.091L1218.19 349.033V376.933H1206.14V558.702L2418.36 559.017V376.302H2410.12V308.47L2372.72 320.202V372.512H2368.28L2367.99 253.286C2366.72 251.549 2349.24 253.538 2346.09 252.686V241.27H2322.63V252.686H2301.39C2301.39 252.686 2300.45 253.57 2300.45 253.633V372.512H2293.47V356.028H2282.05V257.754H2271.27V246.023C2271.27 245.47 2264.42 239.028 2263.33 238.112C2256.05 231.986 2245.55 225.954 2236.83 222.133C2234.3 221.028 2221.23 217.065 2220.66 216.417C2220 215.659 2219.49 209.533 2220.55 208.286H2210.42V356.012C2209.48 356.17 2205.57 355.791 2205.35 356.012C2205.06 356.296 2205.63 361.444 2205.35 361.728C2205.05 362.028 2197.52 362.107 2197.17 360.717L2197.72 283.096H2171.1V271.049H2164.75V283.096H2138.13V361.712H2132.43V349.981C2132.43 348.275 2125.45 349.396 2125.45 349.033V224.138H2119.74V230.486H2100.73V218.438C2100.73 218.154 2106.32 218.944 2106.44 218.075C2106.22 216.844 2106.71 210.481 2106.44 210.196C2106.2 209.959 2101.74 210.37 2100.73 210.196V193.712C2100.73 193.428 2095.03 193.996 2095.03 193.712V124.602H2089.96L2089.94 124.649Z" fill="#9ED3DA"/>
<mask id="mask0_3075_12761" style="mask-type:luminance" maskUnits="userSpaceOnUse" x="104" y="0" width="1232" height="557">
<path d="M1335.52 0.306641H104.479V556.996H1335.52V0.306641Z" fill="white"/>
</mask>
<g mask="url(#mask0_3075_12761)">
<path d="M1084.6 178.365C1084.6 178.365 1090.04 180.513 1096.49 180.418C1102.91 180.323 1106.95 183.544 1117.91 173.849C1128.87 164.155 1130.34 153.497 1127.12 148.302C1123.88 143.092 1096.56 138.813 1082.26 140.565C1067.95 142.318 1034.95 154.792 1034.95 154.792C1034.95 154.792 1042.5 187.176 1084.61 178.365H1084.6Z" fill="#3C668F"/>
<path d="M1096.26 239.928C1096.26 239.928 1095.74 299.991 1125.25 373.649C1117.04 390.038 1037.24 304.175 1096.26 239.928Z" fill="#F2E3DA"/>
<path d="M1065.21 103.49C1065.21 103.49 1065.95 107.532 1068.44 109.095C1070.94 110.659 1064.12 116.643 1064.12 116.643L1065.21 103.49Z" fill="#A85F4D"/>
<path d="M1004.59 133.176C1004.59 133.176 1001.58 151.539 999.145 154.349C1018.11 177.307 1046.17 179.423 1046.17 179.423C1046.17 179.423 1035.41 172.207 1044.78 145.839C1069 140.297 1063.99 123.165 1065.56 110.96C1067.12 98.7547 1074.49 73.0494 1061.61 57.9231C1048.71 42.781 1020.22 75.181 1020.22 75.181C1020.22 75.181 1012.87 129.276 1004.59 133.192V133.176Z" fill="#A85F4D"/>
<path d="M1034.1 36.2603C1020.41 35.0919 993.901 50.2814 988.391 71.5656C982.864 92.8498 1010.2 114.497 1004.57 133.16C1030.47 140.581 1043.72 118.602 1046.62 98.4077C1046.62 98.4077 1059.02 89.0445 1058.62 80.7866C1058.23 72.5287 1051.96 70.9182 1053.41 63.4182C1053.41 63.3393 1053.44 63.2761 1053.46 63.1972C1055.84 51.6393 1048.86 40.2077 1037.46 37.1603L1034.1 36.2603Z" fill="#2E0E0E"/>
<path d="M1047.9 100.161C1047.9 100.161 1049.32 88.1612 1041.13 91.3665C1032.93 94.5717 1034.64 114.056 1045.3 111.024C1050.38 107.914 1047.9 100.161 1047.9 100.161Z" fill="#A85F4D"/>
<path d="M1046.26 103.822C1046.31 101.438 1045.07 98.5483 1044.3 96.322C1043.97 95.3746 1042.44 95.6905 1042.77 96.6378C1043.4 98.4378 1043.94 100.269 1044.35 102.133C1044.54 103.017 1044.84 103.727 1044.3 104.438C1043.89 105.006 1042.82 105.48 1042.23 105.89C1041.41 106.475 1042.47 107.627 1043.27 107.059C1044.52 106.19 1046.2 105.512 1046.23 103.806L1046.26 103.822Z" fill="#56331D"/>
<path d="M1022.31 66.9392C1020.21 66.6708 1013.37 66.8603 1012.44 64.9024C1011.98 63.9392 1014.57 60.3708 1015.2 59.3602C1016.32 57.6076 1017.63 56.0287 1019.07 54.5287C1019.67 53.8971 1019.02 52.8708 1018.2 53.2497C1012.49 55.7918 1007.54 59.3761 1003.36 64.034C1002.7 64.7761 1003.74 65.9445 1004.4 65.2024C1007.57 61.6655 1011.21 58.7761 1015.28 56.4866C1012.96 59.3603 1010.76 62.834 1010.46 66.1182C1010.45 66.3708 1010.59 66.7023 1010.83 66.8129C1012.04 67.4602 1013.57 67.3971 1014.92 67.5708C1017.35 67.8866 1019.78 68.1866 1022.21 68.5024C1023.21 68.6287 1023.29 67.0655 1022.29 66.9392H1022.31Z" fill="#0C0200"/>
<path d="M981.176 377.753C981.176 377.753 976.581 409.032 983.213 437.485C984.776 480.717 933.823 658.759 936.429 700.585C960.492 700.822 979.787 706.017 979.787 706.017C979.787 706.017 1047.82 515.122 1055.01 464.485C1078 557.501 1064.24 702.796 1064.24 702.796L1109.21 704.217C1109.21 704.217 1141.2 550.696 1129.19 444.148C1139.64 379.901 1117.17 363.732 1117.17 363.732L981.192 377.738L981.176 377.753Z" fill="#330B07"/>
<path d="M1108.36 390.669L1122.9 405.258C1129.82 403.3 1128.9 381.227 1124.99 375.227C1121.07 369.227 1108.36 390.685 1108.36 390.685V390.669Z" fill="#A85F4D"/>
<path d="M1125.25 373.65C1125.25 373.65 1134.98 386.771 1115.2 398.329C1111.15 394.082 1108 392.471 1108 392.471L1125.25 373.65Z" fill="#F2E3DA"/>
<path d="M985.392 155.834C985.392 155.834 997.818 133.176 1054.42 169.997C1009.38 174.497 985.392 155.834 985.392 155.834Z" fill="#F2E3DA"/>
<path d="M974.813 310.177C974.529 307.966 945.823 202.319 952.344 178.808C958.881 155.298 989.955 151.903 1015.03 156.608C1040.1 161.313 1100.69 165.229 1114.28 204.924C1127.86 244.619 1100.95 296.329 1100.18 315.656C1099.39 334.982 1129.17 360.056 1129.17 371.029C1124.47 390.877 1111.41 392.187 1111.41 392.187C1111.41 392.187 1098.35 418.303 1082.94 421.177C1059.18 405.514 981.602 412.698 960.965 385.603C959.923 373.129 980.023 351.182 974.813 310.177Z" fill="#3C668F"/>
<path d="M1108.94 391.207C1089.03 371.944 1055.75 361.018 1050.29 330.512C1047.59 315.433 1050.38 299.012 1052.53 284.012C1054.85 267.781 1058.2 251.707 1062.48 235.87C1062.73 234.907 1061.28 234.323 1061.02 235.286C1054.23 260.407 1049.39 286.397 1047.96 312.418C1047.35 323.66 1048.22 335.012 1053.79 345.023C1058.83 354.054 1066.58 361.27 1074.74 367.444C1085.83 375.828 1097.97 382.744 1108 392.439C1108.72 393.133 1109.65 391.886 1108.94 391.191V391.207Z" fill="#2D2644"/>
<path d="M1114.01 215.263C1097.67 213.953 1081.49 218.263 1067.97 227.563C1067.13 228.132 1068.1 229.379 1068.93 228.811C1082.1 219.763 1097.91 215.548 1113.84 216.827C1114.83 216.905 1115.02 215.358 1114.03 215.263H1114.01Z" fill="#4282C4"/>
<path d="M1053.57 461.943C1048.11 454.333 1040.59 448.727 1031.73 445.664C1030.79 445.333 1030.2 446.785 1031.15 447.117C1039.77 450.101 1047 455.485 1052.32 462.89C1052.91 463.711 1054.16 462.748 1053.57 461.927V461.943Z" fill="#2D2644"/>
<path d="M995.166 377.756C991.802 389.03 986.529 396.072 983.213 399.656C986.576 400.824 990.144 401.851 993.871 402.766C997.25 391.398 995.166 377.756 995.166 377.756Z" fill="#2D2644"/>
<path d="M1069.41 94.4605C1067.5 93.1342 1064.88 95.6921 1063.8 97.0342C1063.68 97.1921 1063.63 97.3657 1063.64 97.5236C1063.38 98.2815 1064.04 98.9131 1064.86 98.8973C1065.9 98.8657 1066.98 98.4236 1067.83 97.8078C1068.59 97.271 1069.6 96.3236 1069.75 95.3605C1069.82 94.9973 1069.72 94.6815 1069.41 94.4763V94.4605Z" fill="#2D2644"/>
<path d="M1047.97 97.3491C1047.97 97.3491 1040.84 133.696 1045.42 146.533C1048.47 150.481 1067.81 144.086 1065.18 116.66C1060.83 112.223 1056 117.812 1053.13 111.354C1050.25 104.896 1052.21 88.9648 1052.21 88.9648L1047.97 97.3333V97.3491Z" fill="#2E0E0E"/>
<path d="M1115.42 175.681C1115.42 175.681 1104.19 182.802 1097.46 173.849C1090.74 164.897 1103.97 147.402 1113.9 145.381C1123.83 143.36 1128.74 151.002 1128.6 153.734C1128.48 156.481 1115.42 175.665 1115.42 175.665V175.681Z" fill="#F2E3DA"/>
<path d="M1112.51 174.78C1112.51 174.78 1109.78 174.891 1106.92 170.77C1104.06 166.649 1104.4 157.191 1114.83 150.591C1125.29 143.991 1130.45 154.254 1130.45 154.775C1130.45 155.296 1112.51 174.764 1112.51 174.764V174.78Z" fill="#2D2644"/>
<path d="M1115.88 157.585C1115.88 157.585 1106.97 163.854 1111.76 172.175C1115.17 180.306 1108.01 189.385 1120.25 195.085C1132.49 200.785 1149.93 191.075 1150.52 176.343C1151.1 161.612 1142.21 159.701 1137.95 158.896C1133.69 158.091 1127.09 146.233 1115.89 157.601L1115.88 157.585Z" fill="#A85F4D"/>
<path d="M1113.95 148.265L1106.04 156.181C1105.68 156.538 1105.68 157.118 1106.04 157.476L1111.2 162.634C1111.55 162.991 1112.13 162.991 1112.49 162.634L1120.41 154.718C1120.76 154.36 1120.76 153.78 1120.41 153.423L1115.25 148.265C1114.89 147.907 1114.31 147.907 1113.95 148.265Z" fill="#2D2644"/>
<path d="M1095.97 178.493C1089.05 174.451 1081.83 170.993 1074.41 168.119C1074.6 167.946 1074.73 167.709 1074.7 167.393C1074.3 164.393 1074.14 161.409 1074.18 158.393C1074.18 157.382 1072.61 157.351 1072.61 158.361C1072.58 161.472 1072.79 164.551 1073.17 167.63C1063.41 163.967 1053.29 161.33 1042.9 159.782C1041.9 159.64 1041.89 161.204 1042.87 161.346C1061.34 164.125 1079.04 170.393 1095.16 179.819C1096.03 180.325 1096.85 178.982 1095.98 178.477L1095.97 178.493Z" fill="#2D2644"/>
<path d="M1121.73 187.24C1122.46 186.529 1121.37 185.408 1120.65 186.119C1120.47 186.293 1120.3 186.466 1120.12 186.64C1120 186.04 1119.86 185.456 1119.73 184.856C1119.51 183.877 1117.99 184.256 1118.21 185.25C1118.84 188.108 1119.48 190.982 1120.11 193.84C1120.33 194.819 1121.84 194.44 1121.62 193.445C1121.24 191.74 1120.87 190.035 1120.49 188.345C1120.6 188.314 1120.69 188.25 1120.8 188.156C1121.1 187.856 1121.42 187.556 1121.72 187.256L1121.73 187.24Z" fill="#56331D"/>
<path d="M1137.41 165.732C1135.88 165.875 1134.25 166.017 1133.01 167.011C1132.58 167.359 1132.38 167.817 1132.03 168.196C1130.72 169.569 1129.9 169.79 1128.25 169.696C1126.69 169.617 1125.06 169.348 1123.72 170.406C1122.48 171.385 1122.22 173.09 1121.58 174.448C1121.15 175.348 1122.48 176.169 1122.92 175.269C1123.85 173.311 1124.81 171.322 1127.35 171.196C1128.46 171.132 1129.53 171.48 1130.64 171.227C1131.38 171.069 1131.95 170.753 1132.52 170.264C1132.85 169.98 1132.94 169.617 1133.21 169.301C1134.46 167.832 1135.42 167.485 1137.4 167.311C1138.39 167.217 1138.42 165.653 1137.43 165.748L1137.41 165.732Z" fill="#56331D"/>
<path d="M1138.6 176.438C1138.28 175.491 1136.75 175.87 1137.08 176.833C1138.82 181.933 1140.22 187.096 1141.34 192.338C1141.82 192.007 1142.27 191.659 1142.72 191.296C1141.63 186.275 1140.27 181.333 1138.6 176.438Z" fill="#56331D"/>
<path d="M1129.3 180.576C1129.04 179.597 1127.53 179.991 1127.78 180.97C1129.09 186.102 1130.21 191.281 1131.18 196.491C1131.68 196.413 1132.2 196.318 1132.71 196.207C1131.74 190.965 1130.61 185.77 1129.3 180.591V180.576Z" fill="#56331D"/>
<path d="M1145.8 171.245C1145.51 170.282 1144 170.66 1144.28 171.639C1145.64 176.329 1146.7 181.066 1147.52 185.866C1147.96 185.155 1148.37 184.413 1148.72 183.655C1147.94 179.487 1146.98 175.35 1145.8 171.26V171.245Z" fill="#56331D"/>
<path d="M1016.88 342.464C1004.66 323.39 994.281 303.195 985.96 282.132C985.597 281.2 984.066 281.579 984.445 282.527C992.829 303.732 1003.22 324.053 1015.52 343.237C1016.06 344.09 1017.43 343.316 1016.89 342.464H1016.88Z" fill="#2D2644"/>
<path d="M1045.04 454.081C1036.71 447.686 1028.07 441.686 1019.16 436.113C1018.31 435.576 1017.49 436.918 1018.34 437.455C1027.25 443.029 1035.89 449.029 1044.22 455.423C1045.03 456.039 1045.83 454.697 1045.04 454.081Z" fill="#5E5580"/>
<path d="M965.576 421.902C965.576 421.902 963.224 440.36 963.034 443.802C962.845 447.244 954.95 456.007 954.95 456.007C954.95 456.007 947.655 461.123 946.74 460.618C945.824 460.113 947.829 462.292 947.403 462.544C946.992 462.797 936.366 473.66 934.108 473.739C931.85 473.818 930.429 472.318 931.187 470.644C931.945 468.971 931.266 467.044 932.103 463.87C932.94 460.697 936.05 450.844 937.645 447.765C937.645 447.765 933.697 449.565 936.287 440.913C937.503 436.886 937.992 435.907 939.082 430.397C940.187 424.886 940.882 422.897 940.882 422.897C940.882 422.897 958.882 421.381 965.545 421.886L965.576 421.902Z" fill="#9D4B28"/>
<path d="M956.292 452.408C954.239 454.651 951.997 456.703 949.55 458.503C948.934 458.945 948.318 459.419 947.671 459.814C947.434 459.956 947.134 460.224 946.865 460.051C946.565 459.877 946.534 459.151 946.534 458.866C946.55 457.319 947.813 456.135 948.823 455.108C950.75 453.135 952.613 451.003 953.829 448.493C955.092 445.919 955.565 443.077 955.597 440.219C955.644 436.698 955.076 433.177 954.65 429.687C954.523 428.693 952.96 428.693 953.087 429.687C953.923 436.414 955.313 443.693 951.318 449.708C950.402 451.082 949.313 452.33 948.176 453.514C947.134 454.587 945.981 455.629 945.381 457.035C944.876 458.235 944.75 459.751 945.539 460.872C946.423 462.103 947.702 461.677 948.76 460.966C951.934 458.851 954.823 456.324 957.397 453.514C958.076 452.772 956.971 451.651 956.292 452.408Z" fill="#8C4123"/>
<path d="M941.513 460.003C943.992 456.908 946.739 453.877 947.828 449.977C948.097 448.998 946.581 448.587 946.313 449.566C944.939 454.461 940.818 457.729 938.181 461.898C937.55 462.893 937.013 464.093 937.249 465.277C937.439 466.256 938.165 467.219 939.16 467.503C940.313 467.835 941.244 467.14 942.018 466.366C943.076 465.293 944.118 464.203 945.176 463.114C945.886 462.387 944.765 461.282 944.071 462.008C943.202 462.893 942.334 463.793 941.481 464.677C940.865 465.308 939.839 466.698 939.034 465.529C938.386 464.582 939.097 463.366 939.634 462.561C940.218 461.677 940.865 460.84 941.528 460.019L941.513 460.003Z" fill="#8C4123"/>
<path d="M941.119 437.582C940.171 440.566 939.05 443.487 937.755 446.345C937.582 446.724 937.645 447.182 938.04 447.419C938.371 447.608 938.94 447.53 939.113 447.135C940.471 444.166 941.655 441.119 942.634 437.993C942.934 437.03 941.434 436.619 941.119 437.582Z" fill="#8C4123"/>
<path d="M940.788 449.959C937.756 455.343 934.835 460.791 932.025 466.301C931.567 467.201 932.925 467.991 933.383 467.091C936.193 461.58 939.114 456.133 942.146 450.749C942.635 449.864 941.293 449.075 940.788 449.959Z" fill="#8C4123"/>
<path d="M965.576 421.9C965.576 421.9 968.149 423.369 969.791 419.264C971.433 415.158 968.149 402.401 970.612 398.737C973.076 395.074 973.439 367.095 973.028 350.69C972.618 334.285 971.291 285.779 968.623 267.29C964.202 236.627 962.828 193.948 951.807 186.022C940.786 178.111 927.965 195.337 918.523 223.632C909.097 251.927 923.512 278.185 924.302 301.553C925.091 324.937 938.639 379.774 938.639 379.774C938.639 379.774 940.944 387.811 941.402 395.264C941.86 402.716 940.912 422.911 940.912 422.911C940.912 422.911 960.128 421.995 965.576 421.9Z" fill="#115746"/>
<g style="mix-blend-mode:multiply">
<path d="M966.664 398.469C961.28 398.042 955.912 397.616 950.527 397.174C948.522 397.016 948.522 400.142 950.527 400.316C956.022 400.758 961.517 401.2 967.012 401.626C967.912 401.705 968.827 401.753 969.743 401.816C969.87 400.537 970.122 399.463 970.612 398.737C969.301 398.674 967.975 398.579 966.664 398.469Z" fill="#493333"/>
</g>
<path d="M859.722 723.655C859.722 723.655 863.212 728.06 877.675 724.855C892.138 721.649 908.559 717.102 910.959 714.181C913.359 711.244 925.375 609.086 930.98 575.107C936.585 541.113 943.138 379.792 943.138 379.792L934.943 319.744L796.248 327.544C796.248 327.544 770.038 506.486 767.638 549.118C765.238 591.749 795.885 684.639 795.885 684.639L840.522 651.907C840.522 651.907 841.959 647.534 840.759 636.134C839.559 624.718 824.085 562.334 824.085 562.334C824.085 562.334 859.675 466.239 861.696 460.239C863.717 454.239 867.917 470.455 870.317 495.07C872.717 519.686 859.706 723.655 859.706 723.655H859.722Z" fill="#7597C1"/>
<path d="M941.337 420.623C937.501 423.434 933.522 426.055 929.432 428.487C928.137 429.245 926.843 429.987 925.516 430.713C924.253 431.408 922.958 432.213 921.601 432.734C920.179 433.287 919.106 433.018 917.858 432.213C916.595 431.392 915.395 430.429 914.179 429.545C911.858 427.839 909.379 426.229 907.279 424.239C906.348 423.355 905.479 422.36 904.974 421.176C904.422 419.866 904.358 418.413 904.422 417.008C904.532 413.85 904.911 410.692 905.116 407.534C905.337 404.25 905.511 400.966 905.637 397.666C905.937 390.308 906.016 382.95 905.89 375.592C905.858 373.571 902.716 373.571 902.748 375.592C902.858 382.508 902.795 389.408 902.543 396.324C902.416 399.813 902.243 403.287 902.006 406.776C901.785 410.139 901.406 413.487 901.264 416.85C901.122 420.055 901.879 422.913 903.979 425.376C905.937 427.666 908.606 429.339 911.006 431.124C912.364 432.118 913.706 433.129 915.064 434.124C916.216 434.976 917.464 435.829 918.901 436.113C922.09 436.729 925.2 434.502 927.837 433.018C932.4 430.46 936.822 427.666 941.1 424.65C941.164 423.308 941.227 421.966 941.29 420.671L941.337 420.623Z" fill="#5C7EA8"/>
<path d="M859.926 374.012C859.011 374.012 858.442 374.738 858.363 375.575C857.321 385.427 856.295 395.28 855.253 405.133C854.779 409.585 854.589 414.164 853.626 418.538C853.2 420.464 852.553 422.312 851.432 423.938C850.342 425.517 848.795 426.764 847.232 427.822C843.458 430.364 839.368 432.48 835.437 434.754C834.458 435.322 833.479 435.891 832.484 436.459C831.568 436.98 830.574 437.564 829.5 437.564C827.558 437.564 825.71 435.812 824.21 434.754C820.342 432.038 816.395 429.417 812.605 426.575C811.121 425.47 809.668 424.175 808.863 422.47C807.979 420.591 807.979 418.427 808.058 416.391C808.468 405.496 809.321 394.585 810.063 383.706C810.205 381.685 807.063 381.701 806.921 383.706C806.21 394.08 805.563 404.47 804.995 414.859C804.868 417.133 804.774 419.422 805.295 421.664C805.784 423.796 806.937 425.643 808.468 427.175C810.016 428.706 811.863 429.922 813.647 431.17C815.779 432.67 817.926 434.17 820.058 435.67C822.032 437.059 823.974 438.685 826.121 439.791C828.316 440.912 830.463 440.912 832.705 439.885C834.995 438.827 837.158 437.391 839.337 436.127C841.516 434.864 843.679 433.617 845.858 432.354C849.521 430.222 853.2 427.775 855.126 423.859C857.132 419.754 857.353 415.049 857.826 410.58C859.058 398.912 860.274 387.243 861.505 375.575C861.6 374.738 860.716 374.012 859.942 374.012H859.926Z" fill="#5C7EA8"/>
<path d="M880.531 501.671C879.805 487.697 878.621 473.739 876.994 459.829C876.094 452.076 875.036 444.323 873.868 436.602C873.71 435.608 872.21 436.034 872.352 437.013C874.452 450.781 876.126 464.613 877.342 478.492C878.557 492.308 879.331 506.155 879.678 520.034C879.868 527.897 879.915 535.776 879.836 543.639C879.836 544.65 881.4 544.65 881.4 543.639C881.557 529.634 881.273 515.644 880.547 501.655L880.531 501.671Z" fill="#3A6C89"/>
<path d="M799.753 344.171C796.216 361.523 792.948 378.908 789.916 396.355C786.885 413.881 784.106 431.455 781.595 449.06C779.116 466.429 776.874 483.829 774.916 501.244C773.006 518.266 771.443 535.35 771.364 552.481C771.285 569.281 772.643 586.16 776.511 602.534C777 604.634 777.553 606.734 778.121 608.802C778.39 609.766 779.906 609.355 779.637 608.392C775.106 592.066 773.227 575.155 772.958 558.229C772.706 541.271 774.016 524.329 775.8 507.466C777.648 489.987 779.874 472.539 782.306 455.139C784.737 437.692 787.437 420.276 790.374 402.908C793.327 385.539 796.516 368.218 799.974 350.945C800.4 348.813 800.827 346.697 801.269 344.566C801.474 343.587 799.958 343.16 799.753 344.155V344.171Z" fill="#3A6C89"/>
<path d="M844.374 117.891C844.374 117.891 837.885 115.301 838.185 121.475C838.501 127.649 844.895 139.585 847.074 137.438C847.769 136.759 847.406 135.133 848.448 137.77C849.506 140.406 852.285 150.196 859.138 154.017C865.99 157.838 885.001 158.691 889.548 155.391C894.095 152.075 899.148 136.775 899.322 136.491C899.495 136.207 900.743 138.528 902.685 136.933C905.164 134.896 908.385 123.543 906.316 119.28C904.864 116.28 901.643 117.259 900.095 118.949C899.385 119.722 898.769 93.4012 882.585 88.5696C866.401 83.7381 843.995 88.7749 844.343 117.907L844.374 117.891Z" fill="#9D4B28"/>
<path d="M902.243 89.0295C900.727 86.9611 897.932 89.7716 897.932 89.7716C897.932 89.7716 898.643 85.7927 895.39 86.9137C895.122 85.8242 894.711 85.0822 894.127 84.9085C892.88 84.5453 891.837 84.9874 891.048 85.619C890.29 84.2295 889.532 83.1716 888.838 82.698C885.727 80.5822 883.169 82.4453 883.169 82.4453C883.169 82.4453 871.232 79.1927 867.49 80.0137C863.748 80.8348 863.369 83.7716 863.369 83.7716C863.369 83.7716 850.69 81.9716 848.559 84.5927C846.443 87.2137 847.011 90.94 847.011 90.94C847.011 90.94 844.153 88.84 843.98 92.5348C843.948 93.3874 844.043 94.4453 844.232 95.5664C844.232 95.5664 842.511 95.2979 841.706 98.2032C840.901 101.108 842.338 107.851 842.338 107.851C842.338 107.851 840.537 109.24 841.706 112.903C842.874 116.566 844.359 117.908 844.359 117.908C844.359 117.908 848.29 120.94 849.427 125.535C850.564 130.129 853.595 145.887 856.974 150.719C860.369 155.551 877.643 160.461 887.811 154.24C887.811 154.24 893.322 150.482 893.48 150.087C893.638 149.693 899.795 142.414 901.864 129.893C903.932 117.372 903.743 91.1137 902.227 89.0295H902.243Z" fill="#2E0E0E"/>
<path d="M828.507 158.803C828.507 158.803 834.917 149.992 842.922 144.387C850.928 138.782 856.533 137.977 873.349 137.977C890.165 137.977 917.386 144.387 922.186 148.382C926.986 152.377 920.591 159.198 924.191 161.187C927.791 163.192 932.591 172.398 932.591 172.398C932.591 172.398 949.407 184.003 951.807 186.008C954.207 188.013 933.791 253.256 933.791 253.256C933.791 253.256 933.191 306.892 936.491 319.713C939.791 332.534 940.201 349.745 940.596 351.734C940.991 353.74 943.154 379.761 943.154 379.761C943.154 379.761 932.196 361.35 903.365 361.745C874.549 362.14 789.807 375.75 789.807 375.75C789.807 375.75 785.417 379.761 788.622 360.64C790.091 351.892 794.465 339.687 796.059 328.871C797.654 318.056 806.48 250.05 806.48 250.05C806.48 250.05 789.538 179.187 789.807 176.392C790.075 173.598 828.507 158.771 828.507 158.771V158.803Z" fill="#115746"/>
<path d="M896.528 159.514C896.418 153.088 895.407 146.693 892.881 140.756C892.486 139.824 891.128 140.63 891.523 141.545C893.654 146.551 894.633 151.966 894.886 157.366C895.012 159.909 895.06 162.498 894.823 165.04C894.712 166.209 894.476 167.519 893.67 168.435C892.944 169.288 891.681 169.793 890.639 169.24C890.102 168.94 889.486 169.319 889.454 169.919C889.218 173.977 888.997 178.019 888.76 182.077C888.665 183.766 888.681 185.661 887.749 187.145C886.976 188.393 885.302 189.198 884.007 188.251C883.186 187.651 882.412 189.009 883.218 189.609C884.591 190.603 886.423 190.335 887.749 189.403C889.297 188.314 889.897 186.466 890.133 184.666C890.433 182.345 890.465 179.977 890.591 177.64C890.718 175.43 890.844 173.203 890.97 170.993C892.912 171.324 894.839 169.998 895.676 168.182C896.844 165.609 896.56 162.293 896.512 159.53L896.528 159.514Z" fill="#493333"/>
<g style="mix-blend-mode:multiply">
<path d="M831.696 161.201C831.696 161.201 844.107 168.007 852.917 177.622C861.728 187.222 870.933 191.233 884.149 192.828C897.365 194.422 910.565 195.622 915.775 190.222C920.986 184.822 929.78 175.207 929.78 175.207C929.78 175.207 920.575 194.817 911.765 199.222C902.954 203.628 866.923 200.422 857.323 197.217C847.723 194.012 839.307 169.996 839.307 169.996L831.696 161.186V161.201Z" fill="#493333"/>
</g>
<g style="mix-blend-mode:multiply">
<path d="M934.486 238.558C941.402 221.252 946.818 203.363 950.639 185.126C950.244 184.826 949.77 184.479 949.234 184.1C946.486 197.331 942.933 210.405 938.544 223.194C936.823 228.231 934.96 233.221 932.986 238.147C932.607 239.079 934.123 239.489 934.502 238.558H934.486Z" fill="#493333"/>
</g>
<g style="mix-blend-mode:multiply">
<path d="M939.492 330.277C938.418 322.004 937.186 313.746 936.413 305.44C935.639 297.088 935.939 288.751 935.955 280.383C935.971 270.877 935.576 261.388 934.802 251.914C934.644 249.925 931.502 249.893 931.66 251.914C932.355 260.346 932.749 268.793 932.813 277.256C932.876 285.561 932.418 293.867 933.002 302.156C933.586 310.477 934.849 318.735 935.923 326.993C937.013 335.361 938.102 343.714 939.176 352.083C940.392 361.477 941.607 370.872 942.839 380.267C942.949 381.104 943.486 381.83 944.402 381.83C945.16 381.83 946.076 381.104 945.965 380.267C943.802 363.609 941.639 346.951 939.476 330.277H939.492Z" fill="#493333"/>
</g>
<g style="mix-blend-mode:multiply">
<path d="M940.25 341.043C925.234 331.712 907.013 330.038 889.755 331.522C889.281 319.822 887.134 308.185 886.407 296.501C886.155 292.506 886.076 288.48 886.297 284.485C886.518 280.333 887.134 276.227 887.876 272.138C889.328 264.164 890.986 256.27 891.697 248.185C892.518 238.901 892.439 229.538 891.476 220.27C891.365 219.275 889.802 219.259 889.913 220.27C890.765 228.464 890.923 236.722 890.386 244.949C889.834 253.238 888.334 261.338 886.786 269.485C886.028 273.48 885.334 277.491 884.955 281.533C884.576 285.527 884.544 289.554 884.702 293.549C885.018 301.475 886.107 309.354 887.007 317.233C887.56 322.033 888.018 326.849 888.207 331.664C878.828 332.564 869.544 334.285 860.276 336.022C850.66 337.806 841.06 339.606 831.476 341.58C820.723 343.806 810.002 346.254 799.407 349.143C798.428 349.412 798.855 350.927 799.818 350.659C818.434 345.559 837.381 341.88 856.344 338.343C866.876 336.37 877.534 334.254 888.239 333.227C888.334 336.891 888.239 340.554 887.892 344.217C887.797 345.227 889.36 345.212 889.455 344.217C889.818 340.491 889.897 336.78 889.802 333.085C897.239 332.454 904.692 332.359 912.144 333.259C921.744 334.427 931.202 337.27 939.444 342.401C940.297 342.938 941.086 341.58 940.234 341.043H940.25Z" fill="#493333"/>
</g>
<path d="M766.501 322.317C763.564 322.349 760.486 322.412 757.707 321.307C755.528 320.438 753.585 318.764 752.938 316.459C752.67 315.496 751.154 315.907 751.422 316.87C752.164 319.507 754.264 321.496 756.712 322.585C759.775 323.943 763.201 323.943 766.501 323.896C767.512 323.896 767.512 322.317 766.501 322.333V322.317Z" fill="#115746"/>
<path d="M758.543 412.396C758.543 412.396 788.559 415.002 789.269 415.239C789.98 415.475 789.98 425.186 789.269 428.96C788.559 432.733 786.996 437.944 787.327 440.565C787.659 443.17 785.022 446.691 785.022 446.691C785.022 446.691 782.559 448.033 784.817 450.165C787.09 452.296 788.669 453.196 788.322 454.649C787.975 456.102 787.501 456.717 785.069 458.217C785.069 458.217 784.769 460.223 782.638 459.844C780.506 459.465 776.417 454.507 776.417 454.507C776.417 454.507 770.938 451.191 768.901 449.565C766.864 447.939 763.28 442.933 761.669 440.833C760.059 438.733 758.559 412.412 758.559 412.412L758.543 412.396Z" fill="#9D4B28"/>
<path d="M787.09 452.28C786.253 452.106 785.385 452.233 784.564 452.454C783.806 452.675 783.048 452.99 782.243 453.038C782.18 453.038 782.132 453.069 782.069 453.085C781.232 452.722 780.396 452.359 779.559 451.996C779.48 451.49 779.29 451.017 778.975 450.559C778.359 449.722 777.538 449.122 776.732 448.49C776.306 448.159 775.88 447.796 775.517 447.385C775.217 447.038 775.011 446.659 774.932 446.138C774.901 445.885 774.696 445.711 774.459 445.632C774.459 445.017 774.301 444.417 773.969 443.848C773.338 442.822 772.359 441.954 771.538 441.085C770.622 440.106 769.706 439.111 768.901 438.038C767.417 436.048 766.296 433.759 766.296 431.233C766.296 430.222 764.732 430.222 764.732 431.233C764.732 435.338 767.227 438.701 769.88 441.59C770.575 442.348 771.301 443.09 771.996 443.864C772.88 444.843 773.085 445.68 772.69 446.943C772.611 447.196 772.375 448.222 772.09 448.333C771.743 448.475 771.159 447.78 770.922 447.575C770.085 446.848 769.232 446.106 768.396 445.38C767.638 444.717 766.517 445.822 767.29 446.485C768.301 447.369 769.296 448.269 770.322 449.122C771.032 449.706 771.932 450.243 772.848 449.722C773.432 449.375 773.78 448.664 774.017 447.969C774.711 448.996 775.88 449.738 776.811 450.527C777.096 450.764 777.475 451.127 777.648 451.348C777.917 451.696 778.027 451.932 778.09 452.327C778.09 452.422 778.09 452.848 778.027 453.069C777.996 453.211 777.948 453.369 777.901 453.511C777.885 453.575 777.743 453.859 777.727 453.954C777.617 453.89 777.475 453.875 777.348 453.811C777.017 453.669 776.685 453.511 776.353 453.354C774.964 452.659 773.653 451.79 772.485 450.764C771.727 450.101 770.622 451.206 771.38 451.869C772.58 452.927 773.89 453.843 775.296 454.569C775.975 454.917 776.732 455.359 777.475 455.501C778.453 455.675 778.975 455.043 779.29 454.206C779.369 454.017 779.417 453.827 779.464 453.622C780.254 453.954 781.043 454.301 781.832 454.633C782.669 454.996 783.727 455.311 784.406 455.943C784.675 456.196 784.817 456.448 784.864 456.717C784.896 456.985 784.832 457.317 784.722 457.554C784.422 458.185 783.901 458.596 783.222 458.643C782.306 458.722 781.422 458.28 780.775 457.601C780.08 456.859 778.975 457.98 779.669 458.706C781.232 460.364 784.138 460.917 785.685 458.943C786.317 458.138 786.648 457.001 786.285 455.99C785.954 455.09 785.243 454.522 784.454 454.096C785.022 453.922 785.59 453.732 786.175 453.717C786.459 453.717 786.727 453.717 787.011 453.827C787.248 453.906 787.343 454.001 787.485 454.143C787.611 454.269 787.69 454.443 787.738 454.585C787.738 454.585 787.738 454.648 787.753 454.68C787.753 454.711 787.753 454.806 787.753 454.822C787.753 454.822 787.753 454.838 787.753 454.854C787.753 454.854 787.675 455.059 787.722 454.964C787.532 455.343 787.611 455.817 788.006 456.038C788.354 456.243 788.89 456.132 789.08 455.754C789.822 454.238 788.685 452.548 787.122 452.232L787.09 452.28Z" fill="#8C4123"/>
<path d="M784.597 445.159C782.307 445.964 780.839 443.469 780.634 441.543C780.381 439.143 780.776 436.601 780.918 434.201C780.981 433.143 781.234 431.927 780.981 430.885C780.744 429.922 779.986 429.401 779.228 428.848C777.586 427.617 775.897 426.195 775.455 424.095C775.249 423.117 773.734 423.527 773.939 424.506C774.397 426.685 775.976 428.295 777.681 429.622C778.139 429.985 778.723 430.301 779.134 430.727C779.686 431.296 779.465 432.164 779.418 432.874C779.323 434.311 779.244 435.748 779.149 437.185C778.992 439.585 778.613 442.348 779.923 444.511C780.95 446.201 783.018 447.338 784.976 446.643C785.923 446.311 785.513 444.796 784.565 445.127L784.597 445.159Z" fill="#8C4123"/>
<path d="M796.17 306.432C796.17 306.432 789.444 330.938 788.954 333.732C788.465 336.527 790.344 340.932 789.807 344.548C789.27 348.148 788.875 352.948 788.875 352.948C788.875 352.948 787.944 380.974 789.807 385.774C791.67 390.574 787.012 394.332 787.012 394.332C787.012 394.332 788.859 396.385 790.186 409.696C790.675 414.638 789.27 415.222 789.27 415.222C789.27 415.222 760.454 416.296 757.944 413.706C755.417 411.117 755.923 401.28 755.354 397.174C754.786 393.069 754.138 390.022 754.344 389.99C754.549 389.959 753.223 392.58 752.023 376.964C750.823 361.348 743.323 332.88 747.444 300.859C751.565 268.838 782.323 178.411 789.791 176.406C797.259 174.401 811.154 226.364 811.612 244.222C812.07 262.08 796.154 306.432 796.154 306.432H796.17Z" fill="#115746"/>
<g style="mix-blend-mode:multiply">
<path d="M803.448 218.375C804.806 224.265 806.179 230.17 807.537 236.059C807.758 237.038 809.274 236.628 809.053 235.649C804.237 214.823 799.422 193.996 794.606 173.17C794.101 173.438 793.611 173.691 793.169 173.928C796.595 188.754 800.022 203.565 803.448 218.391V218.375Z" fill="#493333"/>
</g>
<g style="mix-blend-mode:multiply">
<path d="M788.86 392.251C776.433 387.972 765.349 388.714 754.06 390.04C754.17 390.166 754.265 390.166 754.312 390.135C754.312 390.482 754.486 391.556 754.739 393.087C765.523 391.824 776.496 391.319 787.012 394.35C787.012 394.35 787.975 393.561 788.86 392.251Z" fill="#493333"/>
</g>
<path d="M466.059 238.965C466.911 239.817 481.706 329.391 482.843 350.723C483.98 372.054 476.306 416.975 482.843 438.875C489.664 442.286 625.595 437.17 625.595 437.17C625.595 437.17 626.732 381.907 623.606 347.975C620.48 314.044 629.416 250.617 625.801 233.281C596.59 215.36 466.059 238.965 466.059 238.965Z" fill="#713C1A"/>
<path d="M475.17 249.48C476.496 253.269 489.491 284.548 505.28 302.564C537.365 289.68 600.491 304.838 600.302 302.564C600.112 300.29 618.696 247.395 616.044 237.732C552.365 232.995 475.186 249.48 475.186 249.48H475.17Z" fill="#56331D"/>
<path d="M507.586 331.947C506.638 333.463 503.796 348.637 503.607 354.131C476.307 404.374 473.464 434.705 473.464 452.532C473.464 470.358 467.78 564.195 465.317 572.737C462.854 581.263 454.896 609.7 451.091 628.663C447.301 647.626 452.986 696.353 449.764 701.658C459.428 706.205 481.612 708.858 482.37 707.342C484.454 702.984 489.38 675.305 500.386 647.816C511.375 620.326 513.27 584.31 515.938 578.042C518.591 571.789 550.438 457.837 552.522 455.942C554.607 454.047 560.67 456.7 560.67 456.7C560.67 456.7 592.896 567.795 590.812 587.705C588.728 607.616 588.728 630.179 595.549 647.421C602.37 664.679 608.622 705.811 608.433 710.547C612.601 712.442 644.828 711.874 644.259 708.842C643.691 705.81 641.796 640.774 641.796 621.068C641.796 601.363 632.701 572.721 631.943 565.71C631.186 558.7 629.48 463.142 625.88 416.879C621.522 366.068 607.675 350.721 606.538 347.674C605.401 344.626 601.422 324.353 599.907 320.753C598.391 317.153 507.586 331.931 507.586 331.931V331.947Z" fill="#7299C9"/>
<path d="M607.802 349.934C607.154 348.876 606.696 348.15 606.523 347.692C606.381 347.313 606.191 346.634 605.954 345.766C590.796 350.392 575.623 354.592 559.565 356.171C548.717 357.245 537.728 357.26 526.896 355.871C521.181 355.145 515.512 354.008 509.954 352.445C508.028 351.908 505.928 351.371 503.875 350.724C503.717 352.05 503.607 353.234 503.575 354.134C503.544 354.213 503.496 354.276 503.465 354.339C505.312 354.971 507.191 355.508 508.96 356.045C514.486 357.702 520.154 358.887 525.87 359.676C537.017 361.208 548.354 361.239 559.549 360.134C575.654 358.555 592.075 354.955 607.786 349.934H607.802Z" fill="#5C7EA8"/>
<path d="M507.569 331.967C507.095 332.74 506.132 336.988 505.264 341.709C522.964 347.582 573.537 352.319 604.943 341.519C603.285 334.288 600.964 323.33 599.89 320.788C598.374 317.188 507.569 331.967 507.569 331.967Z" fill="#5C7EA8"/>
<path d="M527.653 109.238C527.653 109.238 502.69 172.807 533.18 188.249C529.58 196.965 523.706 200.88 523.706 200.88C523.706 200.88 563.511 215.786 569.022 200.88C566.622 190.601 577.548 127.965 576.98 129.291C576.411 130.617 527.653 109.238 527.653 109.238Z" fill="#713C1A"/>
<path opacity="0.67" d="M528.365 153.514C528.365 153.514 523.202 170.487 526.296 183.024C528.191 185.093 530.465 186.877 533.196 188.251C529.596 196.966 523.723 200.882 523.723 200.882C523.723 200.882 563.528 215.787 569.038 200.882C567.712 195.229 570.428 173.756 573.033 155.787L528.365 153.514Z" fill="#572000"/>
<path d="M572.212 334.096C572.496 335.517 573.68 353.201 574.407 353.991C591.917 352.286 596.749 349.017 596.749 349.017C596.749 349.017 596.828 336.575 594.191 332.17C583.533 331.886 572.228 334.096 572.228 334.096H572.212Z" fill="#DEC9C3"/>
<path d="M596.385 198.653C596.385 198.653 552.522 203.611 523.327 199.632C500.006 199.064 473.843 192.243 465.127 212.895C456.411 233.564 457.169 242.848 457.169 245.501C468.727 257.058 486.174 254.595 485.606 256.869C485.037 259.143 502.485 300.101 501.158 316.774C499.832 333.464 501.095 333.843 506.211 337.064C540.711 341.232 602.78 333.069 602.78 333.069C609.98 326.437 605.622 315.811 604.674 303.874C603.727 291.937 608.653 245.674 608.653 245.674C608.653 245.674 630.269 242.074 634.248 234.306C628.753 213.069 623.195 194.453 596.401 198.637L596.385 198.653Z" fill="#FFC92A"/>
<path d="M578.401 208.521C561.411 214.916 539.969 211.379 523.39 205.379C523.106 205.285 525.143 206.769 525.806 207.006C534.822 210.274 544.138 212.437 553.738 213.132C562.675 213.779 573.001 214.032 581.306 210.195C580.99 210.337 579.175 208.221 578.401 208.521Z" fill="#DB8509"/>
<path d="M528.348 153.512C528.49 155.928 551.243 187.349 563.748 185.928C576.254 184.507 594.175 169.428 597.017 144.543C599.859 119.659 591.617 100.033 576.538 98.754C541.99 89.3751 520.801 100.443 526.627 128.186C527.906 122.786 535.58 118.238 536.717 131.186C537.854 144.133 528.332 153.512 528.332 153.512H528.348Z" fill="#330B07"/>
<path d="M583.784 122.091C569.511 120.796 554.147 158.407 547.595 177.418C553.279 182.612 559.184 186.449 563.732 185.928C575.368 184.602 591.663 171.481 596.179 149.628C596.937 138.686 595.847 123.181 583.768 122.091H583.784Z" fill="#0C0200"/>
<path d="M591.38 131.944C589.485 124.744 578.496 129.449 576.964 133.27C576.964 133.27 567.933 154.112 559.501 192.118C556.548 199.665 554.212 207.418 552.885 215.281C550.359 230.233 552.159 245.596 553.043 260.628C553.17 262.807 553.454 259.444 553.406 258.828C552.38 241.318 550.722 223.996 555.869 206.912C556.391 205.191 556.959 203.502 557.559 201.812C551.291 238.049 555.712 272.328 555.712 273.56C563.859 264.465 570.127 256.87 570.127 256.87L569.748 265.965C584.101 238.286 590.354 206.675 592.438 180.465C592.548 194.739 590.827 208.902 587.022 222.702C583.422 235.728 577.738 248.044 574.438 261.165C574.264 261.86 574.564 264.623 574.659 264.275C578.954 247.554 586.517 231.97 589.88 214.965C592.438 202.065 593.338 188.896 592.754 175.775C593.969 156.339 592.927 140.344 591.348 131.944H591.38Z" fill="#330B07"/>
<path d="M588.649 139.602C588.491 137.518 588.255 140.723 588.302 141.308C591.144 179.992 581.544 217.634 572.639 254.944C572.481 255.592 572.765 258.213 572.844 257.881C582.744 219.307 591.728 179.692 588.649 139.618V139.602Z" fill="#0C0200"/>
<path d="M579.412 210.514C576.838 220.082 573.854 229.477 569.97 238.603C566.67 246.356 562.643 253.714 561.096 262.067C560.97 262.73 561.238 265.272 561.301 264.972C563.133 255.514 568.185 247.114 571.722 238.24C574.943 230.172 577.612 221.882 579.617 213.435C579.775 212.788 579.506 210.182 579.412 210.53V210.514Z" fill="#0C0200"/>
<path d="M578.384 148.049C568.626 174.512 560.921 202.033 562.832 230.501C562.974 232.617 563.226 229.349 563.195 228.765C561.711 202.017 569.447 176.154 578.511 151.301C578.842 150.401 578.226 148.507 578.4 148.049H578.384Z" fill="#0C0200"/>
<path d="M569.922 117.355C556.911 128.961 549.38 146.219 547.106 163.271C547.043 163.777 547.232 167.187 547.406 165.813C549.79 148.145 558.017 133.619 569.922 120.671C570.506 120.04 569.606 117.655 569.922 117.371V117.355Z" fill="#0C0200"/>
<path d="M554.622 127.285C547.88 133.711 542.859 141.922 539.211 150.448C538.817 151.364 539.511 153.433 539.322 153.875C543.111 145.08 548.401 137.675 554.669 130.506C555.206 129.89 554.29 127.601 554.622 127.285Z" fill="#0C0200"/>
<path d="M583.975 109.807C583.091 105.623 580.675 102.039 577.217 99.5283C577.154 99.4809 576.996 101.202 576.996 101.344C576.996 101.723 576.854 102.876 577.217 103.16C580.501 105.67 582.57 108.97 583.817 112.87C583.88 113.076 584.054 111.955 584.054 111.891C584.101 111.213 584.117 110.47 583.975 109.791V109.807Z" fill="#0C0200"/>
<path d="M566.954 453.497C566.575 452.739 573.396 452.549 580.217 446.865C554.117 452.723 530.354 446.865 530.354 446.865C536.464 452.613 540.301 456.118 541.927 456.497C539.511 456.481 527.717 456.37 504.19 451.602C516.001 459.276 539.417 463.855 549.206 465.497C550.975 459.828 552.19 456.276 552.538 455.96C554.622 454.065 560.685 456.718 560.685 456.718C560.685 456.718 561.459 459.418 562.769 464.028C570.159 462.307 585.459 458.534 600.869 453.497C581.906 456.718 567.317 454.255 566.938 453.497H566.954Z" fill="#5C7EA8"/>
<path d="M547.201 375.877C533.133 374.582 518.954 372.782 504.98 370.666C504.791 370.635 504.475 374.582 504.98 374.614C518.938 375.735 533.038 377.219 546.917 379.161C546.159 397.256 544.943 428.092 520.849 427.24C512.322 426.94 504.854 422.235 500.638 414.861C492.98 401.456 499.501 388.856 504.349 376.066C504.68 375.198 504.08 373.335 504.238 372.908C500.275 383.077 495.68 392.44 496.422 403.603C497.117 414.15 502.312 424.903 512.591 429.008C524.038 433.571 536.575 428.929 541.359 417.482C546.349 405.514 546.807 390.782 547.375 377.993C547.375 377.882 547.47 375.908 547.185 375.893L547.201 375.877Z" fill="#5C7EA8"/>
<path d="M565.958 375.877C580.027 374.582 594.206 372.782 608.179 370.666C608.369 370.635 608.685 374.582 608.179 374.614C594.222 375.735 580.122 377.219 566.243 379.161C567 397.256 568.216 428.092 592.311 427.24C600.837 426.94 608.306 422.235 612.522 414.861C620.179 401.456 613.658 388.856 608.811 376.066C608.479 375.198 609.079 373.335 608.922 372.908C612.885 383.077 617.479 392.44 616.737 403.603C616.043 414.15 610.848 424.903 600.569 429.008C589.122 433.571 576.585 428.929 571.8 417.482C566.811 405.514 566.353 390.782 565.785 377.993C565.785 377.882 565.69 375.908 565.974 375.893L565.958 375.877Z" fill="#5C7EA8"/>
<path d="M531.553 129.133C532.247 128.612 531.253 125.959 531.553 125.723C528.205 128.186 527.337 132.402 527.463 136.381C527.495 137.517 527.558 138.007 528.063 138.938C529.153 140.896 530.716 140.47 529.784 142.712C529.421 143.596 527.921 144.875 527.369 145.649C526.848 146.375 527.653 148.681 527.479 148.933C529.611 145.933 531.379 144.938 531.126 141.133C531.032 139.838 530.747 138.607 530.021 137.517C529.784 137.17 528.758 136.349 528.584 135.954C527.4 133.286 529.658 130.523 531.569 129.117L531.553 129.133Z" fill="#56331D"/>
<path d="M503.527 341.347C501.996 341.299 500.654 340.604 499.09 340.715C497.638 340.826 496.217 341.378 495.001 342.152C492.506 343.731 490.785 346.273 489.159 348.657C488.654 349.399 489.443 351.673 489.269 351.941C491.038 349.352 492.917 346.589 495.775 345.104C496.801 344.568 497.954 344.205 499.106 344.11C500.669 343.983 502.011 344.694 503.543 344.741C503.811 344.741 503.89 341.347 503.543 341.331L503.527 341.347Z" fill="#56331D"/>
<path d="M620.637 347.249C619.706 344.865 618.127 343.113 615.822 341.96C614.653 341.376 613.358 340.823 612.079 340.539C610.422 340.176 608.669 340.334 606.979 340.002C606.901 339.986 606.474 343.302 606.979 343.413C609.806 343.981 612.316 343.839 615.032 345.023C617.606 346.144 619.485 347.865 620.511 350.534C620.337 350.076 620.969 348.165 620.622 347.249H620.637Z" fill="#56331D"/>
<path d="M585.521 299.755C572.053 298.287 558.111 300.481 545.163 305.108C547.627 302.85 549.963 300.513 552.221 298.271C559.469 291.055 566.085 283.239 572.637 275.376C573.19 274.729 572.369 272.266 572.527 272.076C565.563 280.287 558.521 288.466 550.769 295.966C546.316 300.276 541.358 305.187 535.895 308.897C532.942 310.271 530.069 311.739 527.29 313.334C526.706 313.666 527.211 316.35 527.29 317.092V317.281C529.737 316.318 532.09 315.071 534.363 313.618C550.5 306.039 567.379 303.308 585.521 303.276C585.79 303.276 585.9 299.771 585.521 299.724V299.755Z" fill="#DB8509"/>
<path d="M586.123 246.907C585.065 261.891 579.428 274.712 571.107 286.981C570.649 287.644 571.36 290.044 571.218 290.202C580.77 278.644 585.46 263.423 586.486 248.644C586.533 248.028 586.281 244.807 586.123 246.907Z" fill="#DB8509"/>
<path d="M564.16 458.311C560.054 454.458 552.933 454.648 547.802 455.469C548.07 455.421 549.728 457.348 550.596 457.206C552.618 456.89 554.654 456.716 556.707 456.795C557.733 456.842 558.744 456.937 559.754 457.095C560.133 457.158 562.502 457.948 561.523 457.016C562.044 457.506 562.833 458.011 563.512 458.248C563.67 458.295 564.665 458.769 564.175 458.311H564.16Z" fill="#455F80"/>
<path d="M381.143 235.129C381.143 236.803 363.506 277.95 363.506 289.413C363.506 300.892 377.78 305.076 372.316 333.908C366.853 362.724 372.237 361.539 386.906 363.655C401.59 365.755 381.127 235.129 381.127 235.129H381.143Z" fill="#F2E3DA"/>
<path d="M469.611 400.13C470.543 400.083 483.269 447.767 476.906 492.341C470.543 536.93 458.369 605.346 459.206 608.283C454.595 609.956 441.364 610.809 441.364 610.809C441.364 610.809 438.837 582.688 438.837 581.425C434.843 599.267 433.595 610.809 433.595 610.809C433.595 610.809 379.658 616.051 350.479 609.546C351.522 543.009 350.479 493.272 351.948 480.262C353.416 467.251 362.622 386.772 374.195 355.604C384.064 340.92 469.595 400.146 469.595 400.146L469.611 400.13Z" fill="#330B07"/>
<path d="M394.011 93.6719C394.011 93.6719 387.538 94.6508 387.98 110.393C388.422 126.135 384.459 139.146 390.98 149.646C397.501 160.146 404.227 152.582 407.716 160.982C411.222 169.382 414.285 182.535 411.916 192.877C413.732 197.772 440.606 191.614 440.606 191.614C440.606 191.614 437.669 170.914 440.606 162.088C443.543 153.261 394.011 93.6719 394.011 93.6719Z" fill="#B15330"/>
<path d="M462.932 202.586C462.932 202.586 450.995 182.565 429.869 185.281C408.743 188.012 392.369 209.944 387.853 219.07C383.337 228.196 462.932 202.586 462.932 202.586Z" fill="#F2E3DA"/>
<path d="M457.248 73.3808C457.248 73.3808 476.842 77.2966 479.353 99.5439C481.879 121.791 460.042 149.218 466.342 163.349C445.769 179.865 445.5 164.186 428.985 170.344C412.469 176.502 403.106 169.081 401.985 168.812C402.821 153.275 380.858 108.654 388.137 86.1229C395.416 63.5913 429.979 59.6755 457.248 73.3966V73.3808Z" fill="#493333"/>
<path d="M459.774 196.508C459.774 196.508 448.295 187.84 416.116 199.303C383.937 210.782 368.764 232.887 368.827 258.34C368.858 268.903 368.101 288.593 367.469 304.666C366.727 323.866 363.68 342.924 358.343 361.382C357.048 365.851 355.706 370.319 354.364 374.377C348.348 392.708 338.195 404.077 338.606 405.466C347.985 410.929 459.19 415.872 478.501 403.272C461.985 361.019 464.795 357.94 464.795 357.94C464.795 357.94 486.901 354.861 490.264 340.035C493.627 325.208 484.106 290.503 481.864 266.993C479.622 243.482 476.274 208.224 459.758 196.477L459.774 196.508Z" fill="#BD6A8B"/>
<path d="M384.08 337.539C384.08 337.539 344.906 349.996 333.159 349.144C321.412 348.307 315.112 335.154 308.954 331.096C302.796 327.039 292.17 338.66 290.07 347.612C287.97 356.565 291.885 356.707 295.106 357.97C298.327 359.233 312.317 368.739 329.243 367.902C346.17 367.065 399.617 366.37 399.617 366.37L384.08 337.554V337.539Z" fill="#B15330"/>
<path d="M384.916 335.863L402.822 367.963H390.648C379.737 358.111 379.737 337.963 379.737 337.963L384.916 335.863Z" fill="#F2E3DA"/>
<path d="M475.265 269.029C475.501 267.971 477.128 268.397 476.891 269.439C470.686 297.987 466.375 326.897 464.007 356.013C463.912 357.087 462.238 357.118 462.333 356.045C464.717 326.787 469.044 297.718 475.28 269.029H475.265Z" fill="#2D2644"/>
<path d="M404.163 367.396C414.679 370.696 420.395 359.264 421.484 350.738C422.621 341.849 422.605 332.722 423.063 323.77C424.011 305.359 424.958 286.949 425.905 268.538C425.969 267.464 427.642 267.433 427.579 268.506C426.427 290.817 425.274 313.143 424.121 335.454C423.695 343.838 424.295 353.564 420.19 361.206C417.032 367.096 410.384 371.122 403.737 369.022C402.711 368.706 403.121 367.064 404.148 367.396H404.163Z" fill="#2D2644"/>
<path d="M381.411 300.812C382.705 306.97 383.874 313.159 384.884 319.365C385.295 321.859 385.879 324.48 386.132 327.07C386.195 327.07 386.258 327.101 386.337 327.117C398.416 331.965 407.353 342.828 416.479 351.686C417.253 352.443 416.084 353.643 415.311 352.901C406.547 344.391 397.784 333.654 386.242 328.886C386.29 330.78 386.084 332.643 385.437 334.443C385.074 335.454 383.432 335.044 383.811 334.033C385.753 328.68 383.684 322.159 382.753 316.743C381.869 311.58 380.874 306.433 379.8 301.286C379.579 300.228 381.19 299.754 381.411 300.812Z" fill="#2D2644"/>
<path d="M401.211 206.928C420.411 204.813 439.611 202.697 458.796 200.581C459.869 200.455 459.885 202.144 458.827 202.255C439.627 204.37 420.427 206.486 401.243 208.602C400.169 208.713 400.153 207.039 401.211 206.928Z" fill="#2D2644"/>
<path d="M429.9 430.729C429.9 430.729 438.774 483.624 433.737 488.661C428.7 493.698 346.153 493.982 342.237 486.987C338.321 479.992 358.184 367.082 358.184 367.082H362.384C362.384 367.082 356.511 427.887 356.795 429.45C357.079 431.013 419.479 435.435 420.032 429.45C420.584 423.466 408.789 328.856 375.379 340.192C369.758 341.819 364.421 343.287 364.421 343.287C364.421 343.287 369.679 334.635 385.642 335.866C401.605 337.098 420.742 365.25 429.9 430.729Z" fill="#C26F55"/>
<path d="M348.695 439.315C349.106 446.579 352.343 453.7 358.516 457.836C363.648 461.263 370.343 462.494 376.832 462.921C377.132 465.447 379.248 466.994 381.711 467.294C384.474 467.626 385.911 465.542 386.653 463.157C386.653 463.157 386.653 463.158 386.653 463.142C395.022 463.094 404.574 462.384 411.853 458.168C418.327 454.41 422.89 448.157 424.801 440.973C425.085 439.931 423.458 439.521 423.174 440.563C421.311 447.542 416.827 453.542 410.464 457.031C403.437 460.884 394.469 461.342 386.622 461.468C378.522 461.594 368.985 461.373 361.58 457.663C354.601 454.173 350.811 446.863 350.385 439.284C350.322 438.21 348.648 438.226 348.711 439.315H348.695ZM378.537 463.015C380.716 463.126 382.864 463.142 384.885 463.157C384.348 464.673 383.464 465.921 381.601 465.605C380.148 465.352 378.822 464.5 378.522 463.031L378.537 463.015Z" fill="#2D2644"/>
<path d="M445.722 71.6298C449.274 73.6509 452.227 76.3982 454.516 79.7929C455.116 80.6929 453.679 81.5614 453.079 80.6614C450.964 77.5193 448.2 74.9772 444.9 73.0982C443.969 72.5614 444.774 71.093 445.722 71.6298Z" fill="#330B07"/>
<path d="M442.044 74.3935C444.001 75.5303 445.944 76.6514 447.901 77.7882C448.833 78.3251 448.012 79.7935 447.08 79.2566C445.122 78.1198 443.18 76.9987 441.223 75.8619C440.291 75.325 441.112 73.8566 442.044 74.3935Z" fill="#330B07"/>
<path d="M448.974 131.819C452.117 123.34 461.811 115.982 459.127 106.13C458.843 105.088 460.453 104.614 460.738 105.656C463.059 114.182 457.059 120.514 452.985 127.319C447.617 136.319 447.964 146.93 448.422 157.019C448.469 158.093 446.796 158.125 446.748 157.051C446.369 148.635 445.99 139.84 448.959 131.803L448.974 131.819Z" fill="#330B07"/>
<path d="M434.48 128.106C434.496 127.033 436.185 127.001 436.154 128.075C435.964 137.312 436.043 146.548 436.391 155.785C436.438 156.859 434.749 156.891 434.717 155.817C434.37 146.58 434.291 137.343 434.48 128.106Z" fill="#330B07"/>
<path d="M411.017 143.359C411.964 146.628 413.054 149.864 414.285 153.038C414.68 154.049 413.069 154.507 412.675 153.512C411.443 150.338 410.354 147.117 409.406 143.833C409.106 142.791 410.717 142.317 411.017 143.359Z" fill="#330B07"/>
<path d="M465.3 411.102L453.442 393.576L457.327 414.181L465.3 411.102Z" fill="#2D2644"/>
<path d="M290.227 351.164C291.443 350.232 292.674 349.285 293.89 348.353C294.743 347.69 295.611 349.143 294.758 349.79C293.543 350.721 292.311 351.669 291.095 352.6C290.243 353.264 289.374 351.811 290.227 351.164Z" fill="#56331D"/>
<path d="M290.97 344.864C292.201 344.121 293.512 343.537 294.885 343.127C295.928 342.811 296.401 344.422 295.359 344.737C294.112 345.116 292.959 345.622 291.838 346.3C290.907 346.853 290.038 345.416 290.97 344.864Z" fill="#56331D"/>
<path d="M293.969 339.496C294.521 339.164 295.09 338.848 295.642 338.517C296.574 337.964 297.442 339.401 296.511 339.954C295.958 340.285 295.39 340.601 294.837 340.933C293.906 341.485 293.037 340.048 293.969 339.496Z" fill="#56331D"/>
<path d="M296.021 356.33C296.069 356.488 296.116 356.551 296.227 356.661C297.048 357.372 295.879 358.572 295.058 357.861C294.743 357.577 294.506 357.214 294.411 356.804C294.142 355.761 295.753 355.288 296.021 356.33Z" fill="#56331D"/>
<path d="M700.17 451.078C700.738 458.468 709.833 519.036 706.707 550.599C703.581 582.163 711.254 700.473 708.981 716.673C706.707 732.889 686.512 776.105 685.091 779.8C683.67 783.494 728.038 782.073 729.175 779.8C730.312 777.526 723.775 741.7 724.059 726.621C724.344 711.542 752.212 654.1 754.77 620.831C757.328 587.563 745.107 569.926 749.37 550.868C753.633 531.81 764.449 475.789 761.307 459.305C740.544 440.815 700.17 451.063 700.17 451.063V451.078Z" fill="#A85F4D"/>
<path d="M689.637 484.349C689.637 484.349 664.169 529.286 661.974 539.233C700.453 611.186 697.311 660.101 703.295 678.007C709.263 695.928 729.742 689.943 732.3 696.496C734.858 703.049 719.227 741.717 719.227 741.717C719.227 741.717 691.358 683.422 685.958 677.17C680.558 670.917 617.132 562.001 614.574 541.522C612.016 521.043 625.09 455.928 625.09 455.928L689.637 484.365V484.349Z" fill="#A85F4D"/>
<path opacity="0.51" d="M621.901 472.963C621.901 472.963 635.133 496.158 681.443 499.142L691.928 480.084L621.901 472.979V472.963Z" fill="#6A330D"/>
<path opacity="0.51" d="M704.148 486.908L705.506 499.145C705.506 499.145 739.754 499.998 759.712 493.019L762.743 469.84L704.164 486.908H704.148Z" fill="#6A330D"/>
<path d="M652.486 252.103C652.486 252.103 663.665 328.129 658.359 345.371C625.565 418.556 618.933 465.766 616.833 475.24C670.296 512.582 750.301 480.545 770.97 487.177C765.854 424.05 764.622 388.019 747.791 351.435C751.059 322.429 770.591 257.961 769.833 256.824C769.075 255.687 781.391 221.756 780.065 216.719C778.738 211.508 754.186 200.124 717.254 193.871C680.338 187.619 636.854 200.25 636.222 205.698C635.591 211.129 652.47 252.087 652.47 252.087L652.486 252.103Z" fill="#FBA746"/>
<path d="M748.517 110.391C747.191 109.791 738.57 81.9543 707.275 95.8806C675.996 109.823 679.123 159.291 679.407 209.06C679.691 258.828 686.512 286.128 693.065 292.096C695.054 291.812 700.596 283.996 700.596 283.996C700.596 283.996 705.854 290.96 708.554 293.66C717.08 292.949 720.491 287.691 720.491 287.691C720.491 287.691 724.328 293.66 727.454 295.791C740.386 291.528 744.238 280.712 744.238 281.139C744.238 281.565 748.644 292.365 752.48 292.223C772.959 258.244 768.886 119.565 748.501 110.36L748.517 110.391Z" fill="#330B07"/>
<path d="M766.218 199.665C766.218 199.444 766.123 199.033 765.997 198.591C765.965 196.097 765.918 193.602 765.855 191.123C764.055 174.67 762.223 163.254 762.223 163.254C762.223 163.254 762.507 228.086 740.891 268.76C739.423 252.986 738.902 206.486 738.902 206.486C738.902 206.486 734.923 244.87 709.897 288.102C699.097 270.749 699.949 201.086 699.949 201.086C699.949 201.086 690.002 231.512 691.423 274.744C681.428 240.56 680.702 176.849 681.16 142.018C678.57 161.77 679.344 185.375 679.47 209.044C679.755 258.812 686.576 286.112 693.128 292.081C694.391 291.907 697.076 288.702 698.876 286.381C698.544 287.849 698.165 289.302 697.707 290.77C697.423 291.702 698.67 293.754 698.544 294.149C699.586 290.849 700.312 287.502 700.786 284.139C701.528 285.118 706.155 291.181 708.633 293.66C715.233 293.107 718.755 289.839 720.018 288.386C720.286 291.054 720.76 293.723 721.376 296.328C721.976 298.775 721.865 296.454 721.581 295.302C720.981 292.76 720.697 290.297 720.665 287.849C721.281 288.797 724.691 293.849 727.518 295.791C733.012 293.975 736.865 290.975 739.486 288.165C737.733 291.07 735.886 293.928 733.928 296.739C733.407 297.481 734.891 299.581 734.623 299.975C738.412 294.654 741.981 289.128 745.186 283.381C746.67 286.649 749.749 292.333 752.544 292.239C755.749 286.902 758.37 278.991 760.391 269.423C759.57 274.191 758.655 278.96 757.612 283.728C757.407 284.66 758.497 286.491 758.402 286.918C764.733 258.386 767.623 228.907 766.202 199.681L766.218 199.665Z" fill="#0C0200"/>
<path d="M746.779 118.285C746.748 117.606 745.958 115.191 745.974 115.491C747.332 148.443 738.79 180.006 730.958 211.696C730.737 212.58 731.827 214.427 731.732 214.806C740.432 183.448 748.185 151.048 746.779 118.285Z" fill="#0C0200"/>
<path d="M749.384 126.007C749.337 125.533 748.5 122.438 748.611 123.749C750.6 145.743 750.458 167.675 748.8 189.67C748.737 190.57 749.59 192.18 749.542 192.654C751.69 170.501 751.421 148.143 749.384 126.007Z" fill="#0C0200"/>
<path d="M695.543 113.787C681.174 140.645 683.195 175.65 688.311 204.75C688.485 205.761 689.227 207.719 688.848 205.508C684.064 177.087 682.327 143.187 696.316 116.945C696.711 116.203 695.416 114.008 695.543 113.787Z" fill="#0C0200"/>
<path d="M691.202 142.113C689.149 156.34 688.628 170.645 689.796 184.982C689.828 185.424 690.602 188.345 690.523 187.113C689.559 173.092 689.986 159.134 691.959 145.208C692.086 144.276 691.123 142.587 691.202 142.113Z" fill="#0C0200"/>
<path d="M726.996 95.3574C719.102 101.973 715.628 115.142 712.881 124.631C709.628 135.857 707.765 147.463 707.038 159.115C705.538 182.863 708.744 206.594 713.528 229.805C713.891 231.605 714.286 231.573 713.907 229.726C708.996 205.568 705.949 180.81 708.381 156.178C709.391 145.994 711.302 135.873 714.302 126.084C717.112 116.957 720.475 105.384 727.723 98.8469C728.307 98.31 726.807 95.5153 726.981 95.3732L726.996 95.3574Z" fill="#493333"/>
<path d="M724.69 103.268C716.464 120.526 712.738 139.41 713.938 158.484C713.969 159.052 714.711 161.294 714.696 160.931C713.811 142.015 717.364 123.62 725.48 106.505C725.859 105.699 724.548 103.52 724.675 103.252L724.69 103.268Z" fill="#493333"/>
<path d="M722.969 119.658C721.895 123.685 721.122 127.758 720.822 131.911C720.758 132.811 721.627 134.469 721.564 134.927C722.037 130.853 722.716 126.858 723.774 122.895C724.027 121.963 722.859 120.069 722.969 119.658Z" fill="#493333"/>
<path d="M751.154 118.316C750.743 116.374 750.317 116.406 750.743 118.411C757.77 151.442 757.738 184.663 752.686 217.948C752.543 218.863 753.538 220.648 753.459 221.074C759.885 187.253 758.354 151.869 751.154 118.316Z" fill="#493333"/>
<path d="M716.985 96.1822C710.259 97.1769 704.496 101.787 701.085 107.519C700.596 108.356 702.08 110.345 701.78 110.819C705.443 104.756 710.985 101.314 717.68 99.4506C717.98 99.3716 717.285 96.1348 716.985 96.1822Z" fill="#493333"/>
<path d="M712.517 265.348C705.333 236.09 701.575 206.327 701.465 176.185C701.465 175.49 700.644 172.964 700.644 173.295C700.644 204.622 704.528 235.964 712.328 266.327C712.928 268.664 712.801 266.453 712.533 265.348H712.517Z" fill="#493333"/>
<path d="M747.001 189.668C746.259 207.7 746.038 225.747 745.612 243.794C745.596 244.505 746.448 247.11 746.464 246.763C746.954 228.668 747.617 210.557 747.806 192.447C747.806 191.8 747.017 189.321 747.001 189.668Z" fill="#493333"/>
<path d="M687.585 239.548C685.659 230.343 685.011 221.153 685.106 211.774C685.106 211.127 684.332 208.695 684.317 209.027C683.906 219.322 685.059 229.569 687.175 239.627C687.569 241.506 687.98 241.49 687.569 239.548H687.585Z" fill="#493333"/>
<path d="M652.485 252.101C652.485 252.101 600.537 292.49 600.348 296.659C600.158 300.827 632.574 342.164 642.253 345.196C651.916 348.227 652.958 327.796 659.937 326.375C660.363 331.49 659.795 341.027 659.937 341.88C661.074 343.443 676.863 338.754 676.863 338.754C678.711 342.733 666.206 345.29 661.642 352.269C657.095 359.233 655.106 362.217 652.121 361.79C646.721 372.733 643.342 367.048 638.7 365.059C634.058 363.069 566.985 325.49 559.027 298.175C558.458 286.617 634.295 206.99 636.948 205.096C648.695 218.359 652.5 252.117 652.5 252.117L652.485 252.101Z" fill="#A85F4D"/>
<path d="M780.079 216.749C778.895 215.518 767.574 254.565 768.995 259.697C777.806 272.202 799.043 298.554 797.337 304.254C795.632 309.939 761.874 344.833 757.516 344.644C753.158 344.454 748.232 340.381 746.811 338.77C745.39 337.16 734.306 337.539 734.306 337.539C734.685 342.181 742.074 340.854 743.306 343.602C744.537 346.349 744.964 356.391 753.348 364.997C752.985 368.486 756.9 374.091 760.548 372.323C766.579 369.386 767.085 362.754 769.832 361.144C772.579 359.533 833.906 320.565 833.337 308.439C832.769 296.312 790.295 227.486 780.064 216.781L780.079 216.749Z" fill="#A85F4D"/>
<path d="M577.737 270.164C582.506 275.296 590.101 282.954 601.738 294.59C609.901 285.259 652.532 252.117 652.532 252.117C652.532 252.117 648.743 218.375 636.98 205.096C635.195 206.375 600.206 242.911 577.722 270.164H577.737Z" fill="#FBA746"/>
<path d="M797.054 304.886C805.691 302.281 817.754 298.223 827.623 293.265C815.559 268.665 788.054 225.086 780.08 216.734C778.896 215.502 767.575 254.549 768.996 259.681C777.807 272.186 799.044 298.539 797.338 304.239C797.275 304.428 797.196 304.649 797.07 304.886H797.054Z" fill="#FBA746"/>
<path d="M741.269 412.081C741.806 411.497 740.385 409.223 740.606 408.986C730.801 419.36 721.043 429.781 711.159 440.092C702.096 449.55 692.543 458.992 681.333 465.907C680.748 466.271 681.996 469.223 682.138 469.697C682.138 469.728 682.138 469.744 682.138 469.776C700.248 458.771 719.448 452.628 740.148 448.697C740.401 448.65 739.785 445.113 739.39 445.16C725.227 446.613 711.238 450.892 698.18 456.907C713.622 443.139 727.185 427.223 741.254 412.097L741.269 412.081Z" fill="#DB8509"/>
<path d="M741.98 467.326C728.827 470.547 715.785 473.563 702.285 475.047C690.569 476.342 673.469 479.105 663.632 470.579C662.811 469.868 660.932 468.763 662.701 470.31C671.18 477.716 681.38 479.042 692.369 478.521C709.864 477.7 727.927 475.016 744.601 469.537C744.316 469.631 742.769 467.137 741.98 467.342V467.326Z" fill="#DB8509"/>
<path d="M725.953 340.145C725.322 339.371 724.516 338.234 723.806 338.345C719.101 338.755 714.869 338.313 710.638 336.845C714.238 331.919 719.985 331.129 725.701 329.582C725.401 329.661 723.806 327.229 722.985 327.292C716.843 327.829 710.227 329.755 706.911 335.329C706.659 335.755 709.311 337.634 709.674 337.808C711.443 338.661 713.211 339.324 715.011 339.845C704.448 342.055 694.501 345.687 685.059 351.45C685.106 351.419 687.111 353.945 687.648 353.613C699.522 346.54 712.959 341.755 726.822 340.84C726.553 340.603 726.269 340.382 726.001 340.145H725.953Z" fill="#DB8509"/>
<path opacity="0.51" d="M648.569 363.116C648.064 362.595 647.401 361.979 646.738 361.679C645.585 361.142 644.433 360.558 643.327 359.927C642.727 359.579 642.127 359.216 641.543 358.837C641.259 358.648 639.775 357.274 640.422 358.127C639.964 357.527 639.301 356.99 638.685 356.579C638.543 356.484 637.643 355.884 638.038 356.406C639.206 357.937 640.896 359.058 642.475 360.132C644.511 361.506 646.643 362.706 648.869 363.748C649.485 364.032 648.664 363.227 648.585 363.148L648.569 363.116Z" fill="#6A330D"/>
<path opacity="0.51" d="M774.586 348.623C771.302 351.386 768.317 354.576 765.444 357.75C765.017 358.223 764.765 358.981 764.559 359.581C764.496 359.771 764.259 360.844 764.354 360.734C767.291 357.513 770.417 354.544 773.528 351.497C773.954 351.071 774.191 350.297 774.38 349.744C774.444 349.586 774.712 348.513 774.586 348.623Z" fill="#6A330D"/>
<path opacity="0.51" d="M736.738 546.875C733.027 548.643 730.69 552.038 729.143 555.701C728.716 556.712 728.227 558.891 729.174 556.696C730.501 553.57 734.511 549.022 738.38 549.291C741.443 549.496 745.232 552.433 745.848 555.385C745.785 555.054 747.364 553.269 747.174 552.385C746.274 548.169 740.653 545.027 736.738 546.891V546.875Z" fill="#6A330D"/>
<path opacity="0.51" d="M659.464 534.167C657.458 530.74 654.837 529.446 650.906 530.756C647.985 531.735 645.743 533.851 644.022 536.346C643.611 536.93 643.216 537.767 643.074 538.477C643.043 538.635 642.727 539.693 643.106 539.156C645.048 536.346 647.858 534.056 651.301 533.488C654.679 532.935 656.558 534.546 658.169 537.325C657.964 536.961 659.89 534.94 659.448 534.167H659.464Z" fill="#6A330D"/>
<path opacity="0.51" d="M569.922 304.127C566.716 302.358 564.048 299.911 562.011 296.848C561.964 296.785 561.237 298.237 561.19 298.348C561.064 298.664 560.511 299.658 560.748 300.006C562.769 303.069 565.437 305.516 568.658 307.285C568.816 307.364 570.316 304.332 569.937 304.127H569.922Z" fill="#6A330D"/>
<path opacity="0.51" d="M830.07 305.153C829.738 305.816 829.391 306.59 829.265 307.347C829.012 308.847 827.133 310.316 826.075 311.311C825.602 311.753 825.365 312.621 825.16 313.205C825.096 313.379 824.828 314.516 824.954 314.405C827.765 311.769 829.912 308.595 830.575 304.711C830.686 304.032 830.133 305.09 830.086 305.169L830.07 305.153Z" fill="#6A330D"/>
<path d="M647.938 203.754C647.938 203.754 646.169 206.454 646.659 206.912C657.048 216.607 661.312 231.338 657.285 245.028C656.906 246.307 658.312 243.37 658.454 242.896C662.59 228.828 658.706 213.78 647.938 203.738V203.754Z" fill="#DB8509"/>
<path d="M780.064 221.121C780.111 221.532 778.643 223.174 778.737 224.121C779.479 231.621 775.864 237.984 771.774 243.953C771.379 244.521 770.685 247.032 770.858 246.763C776.037 239.2 781.011 230.626 780.079 221.121H780.064Z" fill="#DB8509"/>
</g>
</g>
<defs>
<clipPath id="clip0_3075_12761">
<rect width="1440" height="558.947" fill="white" transform="translate(0 0.0527344)"/>
</clipPath>
</defs>
</svg>
