<svg width="430" height="392" viewBox="0 0 430 392" fill="none" xmlns="http://www.w3.org/2000/svg">
<g clip-path="url(#clip0_3075_16778)">
<path d="M-65.5445 -62.9435V9.44176C-65.5445 9.77251 -58.8963 9.11101 -58.8963 9.44176V26.7071C-57.9206 26.8724 -53.8193 26.4755 -53.5877 26.7071C-53.3066 26.9882 -53.8027 33.074 -53.5877 34.2978C-53.7201 35.1908 -58.9129 34.4136 -58.9129 34.6782V47.9579H-39.6631V41.3098H-33.6765V171.808C-33.4945 173.148 -29.6909 171.891 -28.004 172.089C-27.3425 172.172 -25.7053 172.404 -25.7053 173.131V192.728H-20.3967V71.2098H-11.1026V63.2387H32.0607L32.0276 70.8956L41.3714 71.2098C41.2556 80.3882 41.5036 89.5997 41.3879 98.7946C41.0902 124.974 42.0163 151.45 41.3879 177.828C41.3217 180.424 39.5356 191.223 41.3051 192.447C42.2313 193.076 44.1827 192.629 45.3403 192.745V177.133C45.3403 175.595 49.9874 176.389 49.9874 176.141V1.50366H110.416C110.399 3.43857 109.788 5.12543 109.721 7.10995C108.795 37.01 110.532 68.018 110.449 98.1496C110.383 123.254 109.076 148.639 109.721 173.859C109.573 176.819 112.169 176.174 114.402 176.158V160.215H121.05L121.711 102.449H153.579V93.8168H162.212V81.86C163.833 81.2647 169.158 81.0001 170.646 81.7112C175.558 84.0761 181.991 91.5511 186.787 94.809V160.215C186.787 160.546 193.435 159.885 193.435 160.215V176.158H197.42L196.759 20.77H208.716V10.8144H258.527V20.77H270.484V176.158H278.455V186.775H284.425V93.8002H292.396C292.793 91.2699 291.52 86.011 293.058 84.1753C298.796 81.5293 305.577 74.5173 311.166 72.4005C313.118 71.6563 317.401 72.1194 317.633 71.8878C317.947 71.5571 317.302 64.2309 317.633 63.9167C317.881 63.6687 323.156 64.0986 324.281 63.9167V16.7679H328.928V63.9167C330.052 64.0986 335.311 63.6521 335.576 63.9167C335.89 64.2309 335.245 71.5736 335.576 71.8878C335.907 72.202 340.851 71.3421 342.042 72.4005L360.151 84.1753C361.689 86.011 360.415 91.2534 360.812 93.8002H368.783V186.758H373.431V176.141C373.431 175.876 378.739 176.406 378.739 176.141V72.5494H389.704C390.067 72.5494 391.159 73.6078 392.019 73.2109C392.879 72.6155 390.878 63.2552 393.011 63.2552H430.535C430.882 65.2397 429.791 71.9209 431.18 72.9297C431.726 73.3266 444.476 71.2429 444.476 73.5416V176.141C445.915 176.34 453.77 175.463 453.77 177.133V198.053H467.712V178.804C465.628 179.763 463.313 178.919 461.113 178.754C459.922 170.551 462.056 167.707 467.695 162.514C504.227 128.976 594.224 128.827 631.07 161.853C632.162 162.828 638.363 169.129 638.363 169.824V179.449C638.363 179.779 631.715 179.118 631.715 179.449V198.037H650.304V182.756C652.536 182.822 654.885 182.343 656.952 183.418V142.239H675.54V119.665H682.85V126.975C684.437 126.71 690.341 127.735 690.655 125.999L690.821 79.1479H735.969V126.958C748.041 129.307 742.435 121.153 743.94 119.649C744.204 119.384 750.059 119.847 751.249 119.649V142.222H769.176V182.723H784.788C787.417 182.723 784.06 195.341 786.111 195.341H798.729C798.927 195.341 799.672 196.251 800.383 196.003V157.487L847.531 172.089V201.311H860.15V391.693L-409.511 392.023V200.65H-400.878V129.604L-361.7 141.892V196.681H-357.053L-356.756 71.8052C-355.416 69.986 -337.109 72.0698 -333.818 71.1767V59.22H-309.243V71.1767H-287C-287 71.1767 -286.008 72.1028 -286.008 72.169V196.681H-278.698V179.416H-266.741V76.4853H-255.446V64.1978C-255.446 63.619 -248.269 56.8717 -247.128 55.9125C-239.504 49.4959 -228.506 43.1785 -219.378 39.1764C-216.732 38.0188 -203.038 33.8678 -202.443 33.1898C-201.748 32.396 -201.219 25.9794 -202.327 24.6729H-191.71V179.399C-190.734 179.564 -186.633 179.167 -186.402 179.399C-186.104 179.697 -186.699 185.088 -186.402 185.386C-186.087 185.7 -178.199 185.783 -177.835 184.327L-178.414 103.028H-150.531V90.41H-143.883V103.028H-116.001V185.369H-110.031V173.082C-110.031 171.296 -102.721 172.47 -102.721 172.089V41.2767H-96.7344V47.9248H-76.8066V35.3066C-76.8066 35.0089 -82.6609 35.8358 -82.7932 34.9263C-82.5617 33.6363 -83.0744 26.9716 -82.7932 26.6739C-82.5452 26.4259 -77.865 26.8559 -76.8066 26.6739V9.40865C-76.8066 9.11097 -70.8365 9.70633 -70.8365 9.40865V-62.9766H-65.5279L-65.5445 -62.9435Z" fill="#9ED3DA"/>
<mask id="mask0_3075_16778" style="mask-type:luminance" maskUnits="userSpaceOnUse" x="-216" y="0" width="862" height="391">
<path d="M645.633 0.947266H-215.633V390.421H645.633V0.947266Z" fill="white"/>
</mask>
<g mask="url(#mask0_3075_16778)">
<path d="M453.168 180.96C453.168 180.96 456.727 182.363 460.935 182.301C465.133 182.239 467.774 184.343 474.932 178.01C482.091 171.677 483.05 164.714 480.946 161.321C478.831 157.917 460.987 155.122 451.642 156.267C442.297 157.412 420.739 165.56 420.739 165.56C420.739 165.56 425.67 186.715 453.179 180.96H453.168Z" fill="#3C668F"/>
<path d="M460.792 221.174C460.792 221.174 460.451 260.411 479.729 308.528C474.366 319.235 422.235 263.144 460.792 221.174Z" fill="#F2E3DA"/>
<path d="M400.905 151.437C400.905 151.437 398.935 163.433 397.346 165.269C409.734 180.266 428.063 181.649 428.063 181.649C428.063 181.649 421.039 176.935 427.155 159.709C442.978 156.089 439.708 144.898 440.73 136.924C441.751 128.951 446.568 112.159 438.151 102.278C429.724 92.3858 411.116 113.551 411.116 113.551C411.116 113.551 406.31 148.889 400.905 151.447V151.437Z" fill="#A85F4D"/>
<path d="M420.182 88.1252C411.239 87.3619 393.921 97.2846 390.321 111.189C386.711 125.093 404.566 139.234 400.894 151.426C417.81 156.274 426.464 141.916 428.362 128.724C428.362 128.724 436.459 122.607 436.201 117.212C435.943 111.818 431.848 110.766 432.797 105.866C432.797 105.815 432.818 105.774 432.828 105.722C434.385 98.1716 429.826 90.7038 422.379 88.7131L420.182 88.1252Z" fill="#2E0E0E"/>
<path d="M429.197 129.87C429.197 129.87 430.126 122.031 424.772 124.125C419.419 126.219 420.533 138.947 427.496 136.967C430.817 134.935 429.197 129.87 429.197 129.87Z" fill="#A85F4D"/>
<path d="M428.124 132.261C428.155 130.704 427.35 128.816 426.845 127.362C426.628 126.743 425.628 126.949 425.844 127.568C426.257 128.744 426.608 129.941 426.876 131.158C427 131.735 427.196 132.2 426.845 132.664C426.577 133.035 425.875 133.344 425.494 133.613C424.957 133.994 425.649 134.747 426.175 134.376C426.989 133.809 428.083 133.365 428.103 132.251L428.124 132.261Z" fill="#56331D"/>
<path d="M412.477 108.168C411.105 107.993 406.639 108.116 406.03 106.837C405.731 106.208 407.423 103.877 407.835 103.217C408.567 102.072 409.424 101.041 410.362 100.061C410.754 99.6482 410.331 98.9777 409.795 99.2253C406.061 100.886 402.833 103.227 400.099 106.27C399.666 106.755 400.347 107.518 400.78 107.033C402.853 104.723 405.226 102.835 407.887 101.34C406.37 103.217 404.937 105.486 404.741 107.632C404.73 107.797 404.823 108.013 404.978 108.086C405.772 108.508 406.773 108.467 407.65 108.581C409.238 108.787 410.826 108.983 412.415 109.189C413.065 109.272 413.116 108.251 412.466 108.168H412.477Z" fill="#0C0200"/>
<path d="M385.608 311.21C385.608 311.21 382.606 331.643 386.938 350.23C387.959 378.472 354.674 494.779 356.376 522.103C372.096 522.258 384.7 525.651 384.7 525.651C384.7 525.651 429.146 400.947 433.839 367.868C448.857 428.632 439.873 523.547 439.873 523.547L469.249 524.475C469.249 524.475 490.146 424.186 482.297 354.583C489.125 312.613 474.448 302.051 474.448 302.051L385.618 311.2L385.608 311.21Z" fill="#330B07"/>
<path d="M388.362 166.24C388.362 166.24 396.48 151.438 433.458 175.492C404.03 178.432 388.362 166.24 388.362 166.24Z" fill="#F2E3DA"/>
<path d="M381.452 267.064C381.266 265.62 362.514 196.605 366.774 181.246C371.044 165.888 391.343 163.67 407.723 166.744C424.103 169.817 463.68 172.375 472.561 198.306C481.431 224.237 463.855 258.018 463.35 270.643C462.834 283.268 482.287 299.648 482.287 306.816C479.214 319.782 470.683 320.638 470.683 320.638C470.683 320.638 462.153 337.698 452.086 339.576C436.563 329.343 385.887 334.037 372.406 316.337C371.725 308.188 384.855 293.851 381.452 267.064Z" fill="#3C668F"/>
<path d="M469.074 319.999C456.068 307.416 434.324 300.278 430.756 280.35C428.992 270.499 430.817 259.772 432.22 249.973C433.736 239.37 435.923 228.87 438.718 218.524C438.883 217.895 437.935 217.513 437.769 218.142C433.334 234.553 430.168 251.531 429.239 268.529C428.837 275.873 429.404 283.29 433.045 289.829C436.336 295.729 441.4 300.443 446.733 304.476C453.974 309.953 461.906 314.471 468.455 320.804C468.93 321.258 469.538 320.443 469.074 319.989V319.999Z" fill="#2D2644"/>
<path d="M432.901 366.207C429.332 361.236 424.422 357.574 418.636 355.573C418.017 355.356 417.635 356.305 418.254 356.522C423.886 358.471 428.61 361.989 432.086 366.826C432.467 367.363 433.282 366.733 432.901 366.197V366.207Z" fill="#2D2644"/>
<path d="M394.747 311.211C392.55 318.576 389.105 323.176 386.938 325.517C389.135 326.281 391.467 326.951 393.901 327.549C396.108 320.123 394.747 311.211 394.747 311.211Z" fill="#2D2644"/>
<path d="M429.238 128.034C429.238 128.034 424.587 151.778 427.578 160.164C429.569 162.742 442.204 158.565 440.481 140.649C437.645 137.75 434.489 141.401 432.611 137.183C430.734 132.964 432.013 122.557 432.013 122.557L429.238 128.023V128.034Z" fill="#2E0E0E"/>
<path d="M460.596 181.038C456.078 178.398 451.364 176.139 446.516 174.262C446.64 174.148 446.723 173.994 446.702 173.787C446.444 171.827 446.341 169.878 446.362 167.908C446.362 167.248 445.341 167.227 445.341 167.887C445.32 169.919 445.454 171.931 445.702 173.942C439.327 171.549 432.715 169.826 425.928 168.816C425.279 168.723 425.268 169.744 425.908 169.837C437.976 171.652 449.539 175.747 460.07 181.905C460.637 182.235 461.174 181.358 460.606 181.028L460.596 181.038Z" fill="#2D2644"/>
<path d="M408.929 288.155C400.946 275.695 394.169 262.503 388.733 248.743C388.496 248.134 387.496 248.382 387.743 249.001C393.22 262.853 400.007 276.128 408.042 288.661C408.393 289.218 409.29 288.712 408.94 288.155H408.929Z" fill="#2D2644"/>
<path d="M427.33 361.071C421.884 356.894 416.242 352.974 410.424 349.333C409.867 348.983 409.331 349.859 409.888 350.21C415.705 353.851 421.347 357.771 426.794 361.948C427.32 362.35 427.846 361.474 427.33 361.071Z" fill="#5E5580"/>
<path d="M375.416 340.05C375.416 340.05 373.879 352.108 373.755 354.357C373.631 356.605 368.474 362.33 368.474 362.33C368.474 362.33 363.709 365.672 363.111 365.342C362.512 365.012 363.822 366.435 363.544 366.6C363.276 366.765 356.334 373.862 354.859 373.913C353.384 373.965 352.455 372.985 352.951 371.892C353.446 370.798 353.002 369.54 353.549 367.467C354.096 365.393 356.128 358.957 357.169 356.946C357.169 356.946 354.591 358.122 356.282 352.469C357.076 349.839 357.396 349.199 358.108 345.6C358.83 342 359.284 340.7 359.284 340.7C359.284 340.7 371.042 339.71 375.395 340.04L375.416 340.05Z" fill="#9D4B28"/>
<path d="M369.351 359.978C368.01 361.443 366.545 362.784 364.946 363.96C364.544 364.249 364.142 364.558 363.719 364.816C363.564 364.909 363.368 365.084 363.193 364.971C362.997 364.857 362.976 364.383 362.976 364.197C362.986 363.186 363.812 362.413 364.472 361.742C365.73 360.453 366.947 359.061 367.741 357.42C368.567 355.739 368.876 353.883 368.897 352.016C368.928 349.715 368.556 347.415 368.278 345.136C368.195 344.486 367.174 344.486 367.257 345.136C367.803 349.53 368.711 354.285 366.101 358.215C365.503 359.112 364.791 359.927 364.049 360.701C363.368 361.402 362.615 362.083 362.223 363.001C361.893 363.785 361.811 364.775 362.326 365.507C362.904 366.312 363.739 366.033 364.43 365.569C366.504 364.187 368.391 362.537 370.073 360.701C370.516 360.216 369.794 359.483 369.351 359.978Z" fill="#8C4123"/>
<path d="M359.697 364.94C361.316 362.918 363.111 360.938 363.823 358.39C363.998 357.751 363.008 357.482 362.832 358.122C361.935 361.319 359.243 363.455 357.52 366.178C357.108 366.827 356.757 367.611 356.912 368.385C357.036 369.024 357.51 369.654 358.16 369.839C358.913 370.056 359.521 369.602 360.027 369.097C360.718 368.395 361.399 367.684 362.09 366.972C362.554 366.497 361.822 365.775 361.368 366.25C360.8 366.827 360.233 367.415 359.676 367.993C359.274 368.406 358.603 369.313 358.077 368.55C357.654 367.931 358.119 367.137 358.469 366.611C358.851 366.033 359.274 365.487 359.707 364.95L359.697 364.94Z" fill="#8C4123"/>
<path d="M359.439 350.294C358.82 352.244 358.088 354.152 357.242 356.019C357.128 356.266 357.17 356.565 357.427 356.72C357.644 356.844 358.015 356.792 358.129 356.535C359.016 354.595 359.789 352.605 360.429 350.562C360.625 349.933 359.645 349.665 359.439 350.294Z" fill="#8C4123"/>
<path d="M359.222 358.38C357.241 361.897 355.333 365.456 353.497 369.055C353.198 369.643 354.085 370.159 354.384 369.571C356.22 365.971 358.129 362.413 360.109 358.895C360.429 358.318 359.552 357.802 359.222 358.38Z" fill="#8C4123"/>
<path d="M375.416 340.049C375.416 340.049 377.097 341.009 378.17 338.327C379.243 335.645 377.097 327.311 378.706 324.918C380.315 322.525 380.553 304.247 380.284 293.53C380.016 282.814 379.15 251.127 377.407 239.049C374.519 219.018 373.621 191.137 366.422 185.959C359.222 180.792 350.847 192.045 344.678 210.529C338.521 229.013 347.938 246.166 348.454 261.431C348.969 276.707 357.819 312.53 357.819 312.53C357.819 312.53 359.325 317.78 359.624 322.649C359.923 327.517 359.305 340.71 359.305 340.71C359.305 340.71 371.857 340.111 375.416 340.049Z" fill="#115746"/>
<g style="mix-blend-mode:multiply">
<path d="M376.127 324.744C372.61 324.466 369.103 324.187 365.585 323.898C364.276 323.795 364.276 325.837 365.585 325.951C369.175 326.24 372.764 326.529 376.354 326.807C376.942 326.859 377.54 326.89 378.138 326.931C378.221 326.095 378.386 325.394 378.706 324.919C377.85 324.878 376.983 324.816 376.127 324.744Z" fill="#493333"/>
</g>
<path d="M306.267 537.173C306.267 537.173 308.547 540.051 317.995 537.957C327.443 535.863 338.17 532.892 339.738 530.984C341.306 529.066 349.156 462.33 352.817 440.133C356.479 417.925 360.759 312.541 360.759 312.541L355.406 273.314L264.802 278.41C264.802 278.41 247.68 395.306 246.112 423.155C244.545 451.004 264.565 511.685 264.565 511.685L293.725 490.303C293.725 490.303 294.663 487.446 293.879 479.999C293.096 472.541 282.987 431.788 282.987 431.788C282.987 431.788 306.236 369.014 307.557 365.094C308.877 361.174 311.621 371.768 313.188 387.848C314.756 403.929 306.257 537.173 306.257 537.173H306.267Z" fill="#7597C1"/>
<path d="M359.582 339.212C357.076 341.048 354.477 342.76 351.805 344.349C350.959 344.844 350.114 345.329 349.247 345.803C348.422 346.257 347.576 346.783 346.689 347.124C345.761 347.485 345.059 347.309 344.245 346.783C343.419 346.247 342.636 345.618 341.841 345.04C340.325 343.926 338.706 342.874 337.334 341.574C336.725 340.997 336.158 340.347 335.828 339.573C335.467 338.717 335.426 337.768 335.467 336.85C335.539 334.787 335.787 332.724 335.921 330.661C336.065 328.516 336.179 326.37 336.261 324.215C336.457 319.408 336.509 314.602 336.426 309.795C336.405 308.475 334.353 308.475 334.373 309.795C334.446 314.313 334.404 318.82 334.239 323.338C334.157 325.618 334.043 327.887 333.889 330.166C333.744 332.363 333.497 334.55 333.404 336.747C333.311 338.841 333.806 340.708 335.178 342.317C336.457 343.812 338.2 344.906 339.768 346.071C340.655 346.721 341.532 347.381 342.419 348.031C343.172 348.588 343.987 349.145 344.925 349.331C347.009 349.733 349.041 348.279 350.763 347.309C353.744 345.638 356.632 343.813 359.428 341.842C359.469 340.966 359.51 340.089 359.551 339.243L359.582 339.212Z" fill="#5C7EA8"/>
<path d="M306.4 308.764C305.802 308.764 305.43 309.238 305.379 309.785C304.698 316.221 304.028 322.657 303.347 329.094C303.038 332.002 302.914 334.994 302.285 337.851C302.006 339.109 301.583 340.316 300.851 341.379C300.139 342.41 299.128 343.225 298.107 343.916C295.642 345.577 292.97 346.959 290.402 348.444C289.763 348.815 289.123 349.187 288.473 349.558C287.875 349.898 287.225 350.28 286.524 350.28C285.255 350.28 284.048 349.135 283.068 348.444C280.541 346.67 277.963 344.958 275.487 343.101C274.518 342.379 273.569 341.533 273.043 340.419C272.465 339.192 272.465 337.779 272.517 336.448C272.785 329.331 273.342 322.204 273.826 315.097C273.919 313.777 271.867 313.787 271.774 315.097C271.31 321.874 270.887 328.661 270.515 335.448C270.433 336.933 270.371 338.429 270.711 339.893C271.031 341.286 271.784 342.492 272.785 343.493C273.796 344.494 275.002 345.288 276.168 346.103C277.56 347.083 278.963 348.062 280.356 349.042C281.645 349.95 282.914 351.012 284.316 351.734C285.75 352.467 287.153 352.467 288.618 351.796C290.113 351.105 291.526 350.167 292.95 349.341C294.373 348.516 295.786 347.701 297.21 346.876C299.603 345.484 302.006 343.885 303.264 341.327C304.574 338.645 304.719 335.571 305.028 332.652C305.833 325.03 306.627 317.407 307.432 309.785C307.493 309.238 306.916 308.764 306.41 308.764H306.4Z" fill="#5C7EA8"/>
<path d="M319.861 392.156C319.386 383.028 318.613 373.91 317.55 364.823C316.962 359.758 316.271 354.694 315.508 349.65C315.405 349 314.425 349.278 314.518 349.918C315.89 358.912 316.983 367.948 317.777 377.014C318.572 386.04 319.077 395.086 319.304 404.152C319.428 409.289 319.459 414.436 319.407 419.573C319.407 420.233 320.428 420.233 320.428 419.573C320.531 410.424 320.346 401.285 319.871 392.146L319.861 392.156Z" fill="#3A6C89"/>
<path d="M267.092 289.269C264.782 300.605 262.647 311.962 260.666 323.359C258.686 334.809 256.87 346.289 255.23 357.79C253.611 369.136 252.146 380.502 250.867 391.879C249.619 402.999 248.598 414.159 248.547 425.35C248.495 436.325 249.382 447.351 251.909 458.048C252.229 459.42 252.59 460.791 252.961 462.143C253.137 462.772 254.127 462.504 253.951 461.874C250.991 451.209 249.764 440.162 249.588 429.105C249.423 418.027 250.279 406.959 251.445 395.943C252.652 384.525 254.106 373.127 255.695 361.761C257.283 350.363 259.047 338.986 260.965 327.64C262.894 316.294 264.978 304.979 267.237 293.694C267.515 292.302 267.794 290.92 268.082 289.527C268.217 288.888 267.226 288.609 267.092 289.259V289.269Z" fill="#3A6C89"/>
<path d="M296.24 141.45C296.24 141.45 292.001 139.758 292.197 143.791C292.403 147.824 296.581 155.622 298.004 154.22C298.458 153.776 298.221 152.714 298.902 154.436C299.593 156.159 301.408 162.554 305.885 165.05C310.361 167.546 322.78 168.103 325.75 165.947C328.721 163.781 332.022 153.786 332.135 153.601C332.249 153.415 333.064 154.931 334.332 153.889C335.952 152.559 338.056 145.143 336.705 142.358C335.756 140.398 333.652 141.037 332.641 142.141C332.177 142.646 331.774 125.452 321.202 122.296C310.629 119.139 295.993 122.43 296.22 141.46L296.24 141.45Z" fill="#9D4B28"/>
<path d="M334.044 122.598C333.053 121.246 331.228 123.082 331.228 123.082C331.228 123.082 331.692 120.483 329.567 121.215C329.392 120.504 329.124 120.019 328.742 119.905C327.927 119.668 327.246 119.957 326.731 120.37C326.235 119.462 325.74 118.771 325.287 118.461C323.255 117.079 321.584 118.296 321.584 118.296C321.584 118.296 313.786 116.172 311.341 116.708C308.897 117.244 308.649 119.163 308.649 119.163C308.649 119.163 300.366 117.987 298.974 119.699C297.592 121.411 297.963 123.846 297.963 123.846C297.963 123.846 296.096 122.474 295.983 124.887C295.962 125.444 296.024 126.135 296.148 126.868C296.148 126.868 295.023 126.692 294.497 128.59C293.971 130.488 294.91 134.893 294.91 134.893C294.91 134.893 293.734 135.8 294.497 138.193C295.261 140.586 296.23 141.463 296.23 141.463C296.23 141.463 298.799 143.443 299.541 146.445C300.284 149.446 302.264 159.741 304.472 162.897C306.689 166.053 317.973 169.261 324.616 165.197C324.616 165.197 328.216 162.742 328.319 162.484C328.422 162.226 332.445 157.471 333.796 149.292C335.147 141.112 335.024 123.959 334.033 122.598H334.044Z" fill="#2E0E0E"/>
<path d="M285.875 168.177C285.875 168.177 290.063 162.422 295.292 158.76C300.522 155.098 304.184 154.572 315.169 154.572C326.154 154.572 343.936 158.76 347.072 161.37C350.207 163.979 346.03 168.435 348.382 169.735C350.733 171.045 353.869 177.058 353.869 177.058C353.869 177.058 364.854 184.639 366.422 185.949C367.99 187.259 354.653 229.879 354.653 229.879C354.653 229.879 354.261 264.918 356.417 273.294C358.573 281.669 358.841 292.912 359.099 294.212C359.356 295.522 360.77 312.52 360.77 312.52C360.77 312.52 353.611 300.493 334.777 300.751C315.952 301.009 260.594 309.9 260.594 309.9C260.594 309.9 257.726 312.52 259.82 300.029C260.78 294.315 263.637 286.342 264.679 279.276C265.72 272.211 271.486 227.785 271.486 227.785C271.486 227.785 260.419 181.493 260.594 179.668C260.769 177.842 285.875 168.157 285.875 168.157V168.177Z" fill="#115746"/>
<path d="M330.311 168.645C330.239 164.447 329.578 160.27 327.928 156.392C327.67 155.783 326.783 156.309 327.041 156.907C328.433 160.177 329.073 163.715 329.238 167.243C329.32 168.903 329.351 170.595 329.197 172.256C329.125 173.019 328.97 173.875 328.444 174.473C327.969 175.03 327.144 175.36 326.463 174.999C326.113 174.803 325.71 175.051 325.69 175.443C325.535 178.094 325.391 180.734 325.236 183.385C325.174 184.489 325.184 185.726 324.576 186.696C324.07 187.511 322.977 188.037 322.131 187.418C321.595 187.026 321.089 187.913 321.616 188.305C322.513 188.955 323.709 188.78 324.576 188.171C325.587 187.459 325.979 186.252 326.133 185.077C326.329 183.56 326.35 182.013 326.432 180.487C326.515 179.043 326.597 177.588 326.68 176.144C327.949 176.361 329.207 175.494 329.754 174.308C330.517 172.627 330.331 170.461 330.3 168.656L330.311 168.645Z" fill="#493333"/>
<g style="mix-blend-mode:multiply">
<path d="M287.958 169.747C287.958 169.747 296.066 174.192 301.821 180.474C307.577 186.745 313.59 189.365 322.224 190.407C330.857 191.449 339.48 192.233 342.884 188.705C346.288 185.177 352.033 178.896 352.033 178.896C352.033 178.896 346.019 191.706 340.264 194.584C334.508 197.462 310.97 195.368 304.699 193.274C298.428 191.18 292.93 175.492 292.93 175.492L287.958 169.736V169.747Z" fill="#493333"/>
</g>
<g style="mix-blend-mode:multiply">
<path d="M355.106 220.278C359.624 208.973 363.162 197.287 365.658 185.374C365.4 185.178 365.091 184.951 364.74 184.703C362.945 193.347 360.625 201.887 357.757 210.242C356.633 213.533 355.416 216.792 354.126 220.01C353.879 220.619 354.869 220.887 355.117 220.278H355.106Z" fill="#493333"/>
</g>
<g style="mix-blend-mode:multiply">
<path d="M358.376 280.195C357.675 274.791 356.87 269.396 356.365 263.971C355.859 258.514 356.055 253.068 356.066 247.601C356.076 241.392 355.818 235.193 355.313 229.004C355.21 227.704 353.157 227.684 353.26 229.004C353.714 234.512 353.972 240.03 354.013 245.559C354.054 250.984 353.755 256.41 354.137 261.825C354.518 267.261 355.344 272.655 356.045 278.05C356.757 283.517 357.468 288.973 358.17 294.44C358.964 300.577 359.758 306.714 360.563 312.852C360.635 313.398 360.986 313.873 361.584 313.873C362.079 313.873 362.677 313.398 362.605 312.852C361.192 301.97 359.779 291.088 358.366 280.195H358.376Z" fill="#493333"/>
</g>
<g style="mix-blend-mode:multiply">
<path d="M358.872 287.23C349.062 281.134 337.159 280.04 325.885 281.01C325.576 273.367 324.173 265.765 323.699 258.132C323.534 255.522 323.482 252.892 323.626 250.283C323.771 247.57 324.173 244.888 324.658 242.217C325.607 237.008 326.69 231.85 327.154 226.569C327.69 220.504 327.639 214.388 327.01 208.333C326.937 207.683 325.916 207.673 325.988 208.333C326.545 213.686 326.649 219.081 326.298 224.455C325.937 229.87 324.957 235.161 323.946 240.484C323.451 243.093 322.997 245.713 322.75 248.354C322.502 250.963 322.482 253.594 322.585 256.203C322.791 261.381 323.503 266.528 324.091 271.675C324.452 274.811 324.751 277.957 324.874 281.103C318.748 281.691 312.683 282.815 306.628 283.95C300.346 285.115 294.075 286.291 287.814 287.58C280.79 289.035 273.786 290.633 266.865 292.521C266.226 292.696 266.504 293.687 267.133 293.511C279.294 290.18 291.672 287.776 304.06 285.466C310.939 284.176 317.902 282.794 324.895 282.124C324.957 284.517 324.895 286.91 324.668 289.303C324.606 289.963 325.627 289.953 325.689 289.303C325.927 286.869 325.978 284.445 325.916 282.031C330.774 281.618 335.643 281.557 340.511 282.144C346.783 282.908 352.961 284.764 358.345 288.117C358.902 288.467 359.418 287.58 358.861 287.23H358.872Z" fill="#493333"/>
</g>
<path d="M245.369 274.996C243.45 275.017 241.439 275.058 239.624 274.336C238.2 273.768 236.931 272.675 236.508 271.169C236.333 270.54 235.343 270.808 235.518 271.437C236.003 273.16 237.375 274.46 238.974 275.171C240.975 276.058 243.213 276.058 245.369 276.027C246.029 276.027 246.029 274.996 245.369 275.006V274.996Z" fill="#115746"/>
<path d="M240.17 333.84C240.17 333.84 259.779 335.542 260.243 335.696C260.707 335.851 260.707 342.195 260.243 344.66C259.779 347.125 258.757 350.529 258.974 352.241C259.191 353.943 257.468 356.243 257.468 356.243C257.468 356.243 255.859 357.12 257.334 358.512C258.819 359.905 259.851 360.493 259.624 361.442C259.397 362.391 259.087 362.793 257.499 363.773C257.499 363.773 257.303 365.083 255.911 364.835C254.518 364.588 251.847 361.349 251.847 361.349C251.847 361.349 248.267 359.183 246.937 358.12C245.606 357.058 243.265 353.788 242.213 352.416C241.161 351.045 240.181 333.85 240.181 333.85L240.17 333.84Z" fill="#9D4B28"/>
<path d="M258.818 359.893C258.271 359.779 257.704 359.862 257.168 360.006C256.672 360.151 256.177 360.357 255.651 360.388C255.61 360.388 255.579 360.409 255.538 360.419C254.991 360.182 254.445 359.945 253.898 359.707C253.846 359.377 253.723 359.068 253.516 358.769C253.114 358.222 252.578 357.83 252.052 357.417C251.773 357.201 251.495 356.964 251.257 356.695C251.061 356.468 250.927 356.221 250.876 355.881C250.855 355.716 250.721 355.602 250.566 355.55C250.566 355.148 250.463 354.756 250.246 354.385C249.834 353.714 249.194 353.147 248.658 352.58C248.06 351.94 247.462 351.291 246.935 350.589C245.966 349.289 245.234 347.794 245.234 346.144C245.234 345.483 244.212 345.483 244.212 346.144C244.212 348.825 245.842 351.022 247.575 352.91C248.029 353.405 248.503 353.89 248.957 354.395C249.535 355.035 249.669 355.581 249.411 356.407C249.359 356.572 249.205 357.242 249.019 357.314C248.792 357.407 248.41 356.953 248.256 356.819C247.709 356.345 247.152 355.86 246.605 355.385C246.11 354.952 245.378 355.674 245.883 356.107C246.544 356.685 247.193 357.273 247.864 357.83C248.328 358.212 248.916 358.562 249.514 358.222C249.896 357.995 250.123 357.531 250.277 357.077C250.731 357.747 251.495 358.232 252.103 358.748C252.289 358.903 252.536 359.14 252.65 359.284C252.825 359.511 252.897 359.666 252.939 359.924C252.939 359.986 252.939 360.264 252.897 360.409C252.877 360.502 252.846 360.605 252.815 360.697C252.805 360.739 252.712 360.924 252.701 360.986C252.629 360.945 252.536 360.935 252.454 360.893C252.237 360.801 252.021 360.697 251.804 360.594C250.896 360.14 250.04 359.573 249.277 358.903C248.782 358.47 248.06 359.192 248.555 359.625C249.339 360.316 250.195 360.914 251.113 361.389C251.556 361.615 252.052 361.904 252.536 361.997C253.176 362.111 253.516 361.698 253.722 361.151C253.774 361.028 253.805 360.904 253.836 360.77C254.352 360.986 254.867 361.213 255.383 361.43C255.93 361.667 256.621 361.873 257.064 362.286C257.24 362.451 257.333 362.616 257.364 362.791C257.384 362.967 257.343 363.183 257.271 363.338C257.075 363.751 256.734 364.019 256.291 364.05C255.693 364.101 255.115 363.813 254.692 363.369C254.238 362.884 253.516 363.617 253.97 364.091C254.991 365.174 256.889 365.535 257.9 364.246C258.313 363.72 258.529 362.977 258.292 362.317C258.075 361.729 257.611 361.358 257.095 361.079C257.467 360.966 257.838 360.842 258.22 360.832C258.405 360.832 258.581 360.832 258.766 360.904C258.921 360.955 258.983 361.017 259.076 361.11C259.158 361.193 259.21 361.306 259.241 361.399C259.241 361.399 259.241 361.44 259.251 361.461C259.251 361.481 259.251 361.543 259.251 361.554C259.251 361.554 259.251 361.564 259.251 361.574C259.251 361.574 259.2 361.708 259.23 361.646C259.107 361.894 259.158 362.203 259.416 362.348C259.643 362.482 259.994 362.41 260.118 362.162C260.602 361.172 259.86 360.068 258.839 359.862L258.818 359.893Z" fill="#8C4123"/>
<path d="M257.191 355.243C255.695 355.769 254.736 354.139 254.602 352.881C254.437 351.313 254.694 349.652 254.787 348.085C254.829 347.394 254.994 346.599 254.829 345.919C254.674 345.289 254.179 344.949 253.684 344.588C252.611 343.783 251.507 342.855 251.218 341.483C251.084 340.844 250.094 341.112 250.228 341.751C250.527 343.175 251.559 344.227 252.673 345.093C252.972 345.331 253.354 345.537 253.622 345.815C253.983 346.187 253.838 346.754 253.807 347.218C253.746 348.157 253.694 349.095 253.632 350.034C253.529 351.602 253.281 353.407 254.138 354.82C254.808 355.924 256.159 356.666 257.438 356.213C258.057 355.996 257.789 355.006 257.17 355.222L257.191 355.243Z" fill="#8C4123"/>
<path d="M264.751 264.618C264.751 264.618 260.357 280.627 260.037 282.452C259.717 284.278 260.945 287.156 260.594 289.518C260.243 291.87 259.985 295.005 259.985 295.005C259.985 295.005 259.377 313.314 260.594 316.449C261.811 319.585 258.768 322.04 258.768 322.04C258.768 322.04 259.975 323.381 260.841 332.076C261.161 335.305 260.243 335.686 260.243 335.686C260.243 335.686 241.419 336.388 239.779 334.696C238.129 333.004 238.459 326.578 238.087 323.897C237.716 321.215 237.293 319.224 237.427 319.203C237.561 319.183 236.695 320.895 235.911 310.694C235.127 300.493 230.228 281.895 232.92 260.977C235.612 240.059 255.705 180.987 260.584 179.678C265.462 178.368 274.539 212.313 274.838 223.979C275.138 235.645 264.74 264.618 264.74 264.618H264.751Z" fill="#115746"/>
<g style="mix-blend-mode:multiply">
<path d="M269.504 207.093C270.391 210.941 271.289 214.798 272.176 218.646C272.32 219.285 273.31 219.017 273.166 218.377C270.02 204.772 266.874 191.167 263.728 177.562C263.398 177.738 263.078 177.903 262.79 178.058C265.028 187.743 267.266 197.418 269.504 207.104V207.093Z" fill="#493333"/>
</g>
<g style="mix-blend-mode:multiply">
<path d="M259.975 320.68C251.857 317.885 244.617 318.37 237.242 319.236C237.314 319.319 237.376 319.319 237.407 319.298C237.407 319.525 237.52 320.226 237.685 321.227C244.73 320.402 251.899 320.072 258.768 322.052C258.768 322.052 259.397 321.536 259.975 320.68Z" fill="#493333"/>
</g>
<path d="M49.1021 220.545C49.659 221.102 59.3238 279.617 60.0665 293.552C60.8091 307.487 55.7962 336.832 60.0665 351.139C64.5224 353.367 153.321 350.025 153.321 350.025C153.321 350.025 154.064 313.924 152.021 291.757C149.979 269.591 155.817 228.157 153.455 216.832C134.373 205.125 49.1021 220.545 49.1021 220.545Z" fill="#713C1A"/>
<path d="M55.0542 227.414C55.9206 229.89 64.4096 250.323 74.7242 262.092C95.6835 253.675 136.921 263.578 136.798 262.092C136.674 260.607 148.814 226.053 147.081 219.74C105.482 216.646 55.0645 227.414 55.0645 227.414H55.0542Z" fill="#56331D"/>
<path d="M76.2298 281.288C75.6109 282.278 73.7543 292.19 73.6305 295.78C55.7965 328.601 53.9399 348.415 53.9399 360.06C53.9399 371.706 50.2266 433.005 48.6175 438.586C47.0085 444.156 41.8099 462.732 39.3241 475.12C36.8485 487.508 40.5618 519.339 38.4576 522.805C44.7702 525.775 59.2622 527.508 59.7573 526.518C61.1189 523.671 64.337 505.589 71.5263 487.632C78.7053 469.674 79.943 446.146 81.6862 442.051C83.4191 437.967 104.224 363.526 105.585 362.288C106.947 361.051 110.908 362.784 110.908 362.784C110.908 362.784 131.96 435.357 130.598 448.364C129.237 461.371 129.237 476.11 133.693 487.374C138.148 498.648 142.233 525.517 142.109 528.612C144.832 529.85 165.884 529.478 165.513 527.498C165.142 525.517 163.904 483.031 163.904 470.159C163.904 457.286 157.963 438.575 157.468 433.996C156.973 429.416 155.859 366.992 153.507 336.77C150.66 303.578 141.614 293.552 140.872 291.561C140.129 289.57 137.53 276.326 136.539 273.975C135.549 271.623 76.2298 281.277 76.2298 281.277V281.288Z" fill="#7299C9"/>
<path d="M141.696 293.038C141.273 292.346 140.974 291.872 140.861 291.573C140.768 291.325 140.644 290.882 140.489 290.314C130.587 293.337 120.675 296.08 110.185 297.112C103.099 297.813 95.9199 297.823 88.844 296.916C85.1101 296.441 81.4072 295.699 77.7764 294.678C76.5181 294.327 75.1462 293.976 73.8053 293.553C73.7022 294.42 73.6299 295.193 73.6093 295.781C73.5887 295.833 73.5577 295.874 73.5371 295.915C74.7439 296.328 75.9714 296.679 77.1266 297.029C80.7367 298.112 84.4397 298.886 88.1736 299.402C95.4557 300.402 102.862 300.423 110.175 299.701C120.696 298.669 131.423 296.318 141.686 293.038H141.696Z" fill="#5C7EA8"/>
<path d="M76.2183 281.299C75.9089 281.804 75.2797 284.579 74.7124 287.663C86.2751 291.5 119.313 294.594 139.829 287.539C138.746 282.815 137.229 275.657 136.528 273.996C135.538 271.644 76.2183 281.299 76.2183 281.299Z" fill="#5C7EA8"/>
<path d="M89.339 135.799C89.339 135.799 73.0316 177.325 92.9492 187.413C90.5974 193.107 86.7604 195.665 86.7604 195.665C86.7604 195.665 112.764 205.402 116.363 195.665C114.796 188.95 121.933 148.032 121.562 148.898C121.191 149.765 89.339 135.799 89.339 135.799Z" fill="#713C1A"/>
<path opacity="0.67" d="M89.804 164.723C89.804 164.723 86.4311 175.811 88.4528 184.001C89.6905 185.352 91.1758 186.517 92.9603 187.415C90.6085 193.109 86.7715 195.667 86.7715 195.667C86.7715 195.667 112.775 205.404 116.374 195.667C115.508 191.974 117.282 177.946 118.984 166.208L89.804 164.723Z" fill="#572000"/>
<path d="M118.447 282.689C118.633 283.617 119.407 295.17 119.881 295.685C131.32 294.571 134.476 292.436 134.476 292.436C134.476 292.436 134.528 284.308 132.805 281.431C125.843 281.245 118.458 282.689 118.458 282.689H118.447Z" fill="#DEC9C3"/>
<path d="M134.239 194.21C134.239 194.21 105.585 197.449 86.5128 194.849C71.2781 194.478 54.1868 190.022 48.4931 203.514C42.7994 217.016 43.2946 223.081 43.2946 224.813C50.8449 232.364 62.2425 230.755 61.8712 232.24C61.4999 233.725 72.8975 260.481 72.0311 271.374C71.1647 282.276 71.9898 282.524 75.3318 284.628C97.8692 287.351 138.416 282.018 138.416 282.018C143.12 277.686 140.273 270.744 139.654 262.947C139.035 255.149 142.253 224.927 142.253 224.927C142.253 224.927 156.374 222.575 158.973 217.5C155.384 203.627 151.753 191.466 134.249 194.2L134.239 194.21Z" fill="#FFC92A"/>
<path d="M122.491 200.659C111.392 204.836 97.3851 202.526 86.5548 198.606C86.3691 198.544 87.6997 199.514 88.1329 199.669C94.0225 201.804 100.108 203.217 106.379 203.671C112.218 204.094 118.963 204.259 124.389 201.752C124.183 201.845 122.996 200.463 122.491 200.659Z" fill="#DB8509"/>
<path d="M89.7926 164.722C89.8854 166.3 104.749 186.826 112.918 185.898C121.087 184.97 132.794 175.119 134.651 158.863C136.508 142.608 131.123 129.786 121.273 128.951C98.7044 122.824 84.8622 130.055 88.6683 148.177C89.5038 144.65 94.5167 141.679 95.2594 150.137C96.002 158.595 89.7823 164.722 89.7823 164.722H89.7926Z" fill="#330B07"/>
<path d="M126.007 144.193C116.683 143.347 106.647 167.917 102.366 180.336C106.079 183.729 109.937 186.236 112.908 185.895C120.51 185.029 131.154 176.457 134.104 162.182C134.599 155.034 133.888 144.905 125.997 144.193H126.007Z" fill="#0C0200"/>
<path d="M130.969 150.633C129.731 145.929 122.552 149.003 121.552 151.499C121.552 151.499 115.652 165.115 110.144 189.942C108.215 194.872 106.688 199.937 105.822 205.074C104.172 214.841 105.348 224.878 105.925 234.697C106.008 236.121 106.193 233.924 106.162 233.521C105.492 222.082 104.409 210.767 107.771 199.607C108.112 198.482 108.483 197.379 108.875 196.275C104.78 219.947 107.668 242.34 107.668 243.145C112.991 237.204 117.086 232.242 117.086 232.242L116.838 238.183C126.214 220.102 130.299 199.452 131.66 182.33C131.732 191.654 130.608 200.906 128.122 209.921C125.771 218.431 122.057 226.476 119.901 235.048C119.788 235.502 119.984 237.307 120.046 237.08C122.851 226.157 127.792 215.976 129.989 204.867C131.66 196.44 132.248 187.838 131.866 179.266C132.661 166.569 131.98 156.12 130.948 150.633H130.969Z" fill="#330B07"/>
<path d="M129.185 155.636C129.082 154.275 128.927 156.369 128.958 156.75C130.815 182.021 124.543 206.611 118.726 230.985C118.623 231.408 118.808 233.12 118.86 232.903C125.327 207.705 131.196 181.825 129.185 155.647V155.636Z" fill="#0C0200"/>
<path d="M123.151 201.958C121.47 208.208 119.52 214.346 116.983 220.307C114.827 225.372 112.197 230.178 111.186 235.635C111.103 236.068 111.279 237.729 111.32 237.533C112.516 231.354 115.817 225.867 118.128 220.07C120.232 214.799 121.975 209.384 123.285 203.866C123.388 203.443 123.213 201.741 123.151 201.968V201.958Z" fill="#0C0200"/>
<path d="M122.479 161.154C116.105 178.442 111.071 196.42 112.32 215.017C112.412 216.399 112.577 214.264 112.557 213.883C111.587 196.41 116.641 179.514 122.562 163.279C122.779 162.691 122.376 161.453 122.49 161.154H122.479Z" fill="#0C0200"/>
<path d="M116.951 141.104C108.452 148.685 103.532 159.959 102.047 171.098C102.005 171.429 102.129 173.656 102.243 172.759C103.8 161.217 109.174 151.728 116.951 143.27C117.333 142.857 116.745 141.3 116.951 141.114V141.104Z" fill="#0C0200"/>
<path d="M106.956 147.59C102.552 151.788 99.2715 157.151 96.8888 162.721C96.6309 163.32 97.0848 164.671 96.961 164.96C99.4365 159.214 102.892 154.377 106.987 149.694C107.337 149.292 106.739 147.796 106.956 147.59Z" fill="#0C0200"/>
<path d="M126.132 136.171C125.555 133.437 123.976 131.096 121.717 129.456C121.676 129.425 121.573 130.549 121.573 130.642C121.573 130.889 121.48 131.642 121.717 131.828C123.863 133.468 125.214 135.624 126.029 138.172C126.07 138.306 126.184 137.573 126.184 137.532C126.215 137.089 126.225 136.604 126.132 136.16V136.171Z" fill="#0C0200"/>
<path d="M115.012 360.691C114.765 360.196 119.221 360.073 123.677 356.359C106.627 360.186 91.103 356.359 91.103 356.359C95.0948 360.114 97.6013 362.404 98.6637 362.651C97.0855 362.641 89.3805 362.569 74.0117 359.454C81.7271 364.467 97.0236 367.458 103.419 368.531C104.574 364.828 105.368 362.507 105.595 362.301C106.957 361.063 110.917 362.796 110.917 362.796C110.917 362.796 111.423 364.559 112.279 367.571C117.106 366.447 127.101 363.982 137.168 360.691C124.78 362.796 115.25 361.187 115.002 360.691H115.012Z" fill="#5C7EA8"/>
<path d="M102.109 309.984C92.9187 309.138 83.6562 307.962 74.5277 306.58C74.404 306.56 74.1977 309.138 74.5277 309.159C83.6459 309.891 92.8568 310.861 101.923 312.129C101.428 323.95 100.634 344.094 84.8939 343.537C79.324 343.342 74.4452 340.268 71.6912 335.451C66.6886 326.694 70.9486 318.463 74.1152 310.108C74.3318 309.541 73.9398 308.323 74.043 308.045C71.454 314.688 68.4524 320.804 68.9372 328.097C69.391 334.987 72.7845 342.011 79.4994 344.693C86.9775 347.674 95.1673 344.641 98.2926 337.163C101.552 329.345 101.851 319.721 102.223 311.366C102.223 311.294 102.284 310.005 102.099 309.994L102.109 309.984Z" fill="#5C7EA8"/>
<path d="M114.362 309.984C123.552 309.138 132.815 307.962 141.943 306.58C142.067 306.56 142.273 309.138 141.943 309.159C132.825 309.891 123.614 310.861 114.548 312.129C115.043 323.95 115.837 344.094 131.577 343.537C137.147 343.342 142.026 340.268 144.78 335.451C149.783 326.694 145.523 318.463 142.356 310.108C142.139 309.541 142.531 308.323 142.428 308.045C145.017 314.688 148.019 320.804 147.534 328.097C147.08 334.987 143.687 342.011 136.972 344.693C129.494 347.674 121.304 344.641 118.179 337.163C114.919 329.345 114.62 319.721 114.249 311.366C114.249 311.294 114.187 310.005 114.372 309.994L114.362 309.984Z" fill="#5C7EA8"/>
<path d="M91.8864 148.798C92.3402 148.458 91.6904 146.725 91.8864 146.57C89.6997 148.179 89.1324 150.933 89.2149 153.533C89.2355 154.275 89.2768 154.595 89.6068 155.204C90.3185 156.483 91.3397 156.204 90.7311 157.669C90.4939 158.246 89.514 159.082 89.153 159.587C88.8126 160.062 89.3387 161.568 89.2252 161.733C90.6177 159.773 91.7729 159.123 91.6079 156.637C91.546 155.792 91.3603 154.987 90.8858 154.275C90.7311 154.048 90.0607 153.512 89.9472 153.254C89.1736 151.511 90.6486 149.706 91.8967 148.788L91.8864 148.798Z" fill="#56331D"/>
<path d="M73.5779 287.426C72.5774 287.395 71.7007 286.941 70.6795 287.014C69.7306 287.086 68.8022 287.447 68.008 287.952C66.3783 288.984 65.254 290.644 64.1916 292.202C63.8615 292.687 64.3773 294.172 64.2638 294.347C65.419 292.656 66.6465 290.851 68.5134 289.881C69.1839 289.53 69.9369 289.293 70.6898 289.231C71.711 289.149 72.5877 289.613 73.5882 289.644C73.7636 289.644 73.8152 287.426 73.5882 287.416L73.5779 287.426Z" fill="#56331D"/>
<path d="M150.082 291.283C149.473 289.726 148.442 288.581 146.936 287.828C146.173 287.446 145.327 287.085 144.491 286.9C143.408 286.662 142.263 286.765 141.16 286.549C141.108 286.539 140.83 288.705 141.16 288.777C143.006 289.148 144.646 289.055 146.42 289.829C148.102 290.561 149.329 291.686 149.999 293.429C149.886 293.13 150.299 291.882 150.072 291.283H150.082Z" fill="#56331D"/>
<path d="M127.141 260.257C118.343 259.298 109.235 260.732 100.777 263.754C102.386 262.279 103.912 260.752 105.387 259.288C110.122 254.574 114.444 249.468 118.724 244.332C119.085 243.909 118.549 242.3 118.652 242.176C114.103 247.539 109.503 252.882 104.438 257.782C101.53 260.598 98.2909 263.806 94.7221 266.229C92.7932 267.127 90.916 268.086 89.1006 269.128C88.719 269.345 89.049 271.098 89.1006 271.583V271.707C90.6994 271.077 92.2362 270.263 93.7215 269.314C104.263 264.363 115.289 262.578 127.141 262.557C127.316 262.557 127.388 260.268 127.141 260.237V260.257Z" fill="#DB8509"/>
<path d="M127.535 225.736C126.844 235.525 123.162 243.9 117.726 251.914C117.427 252.348 117.891 253.916 117.798 254.019C124.038 246.468 127.102 236.525 127.772 226.871C127.803 226.468 127.638 224.364 127.535 225.736Z" fill="#DB8509"/>
<path d="M113.187 363.835C110.506 361.318 105.854 361.442 102.501 361.979C102.677 361.948 103.76 363.206 104.327 363.113C105.647 362.907 106.978 362.793 108.319 362.845C108.989 362.876 109.65 362.938 110.31 363.041C110.557 363.082 112.104 363.598 111.465 362.989C111.805 363.309 112.321 363.639 112.764 363.794C112.868 363.825 113.517 364.134 113.198 363.835H113.187Z" fill="#455F80"/>
<path d="M-6.37017 218.039C-6.37017 219.132 -17.8916 246.012 -17.8916 253.501C-17.8916 260.999 -8.56718 263.733 -12.136 282.567C-15.7049 301.392 -12.1876 300.618 -2.60534 302C6.98726 303.372 -6.38048 218.039 -6.38048 218.039H-6.37017Z" fill="#F2E3DA"/>
<path d="M51.4235 325.827C52.032 325.796 60.3456 356.946 56.1888 386.064C52.032 415.193 44.0794 459.886 44.6261 461.805C41.6142 462.898 32.9706 463.455 32.9706 463.455C32.9706 463.455 31.3202 445.085 31.3202 444.259C28.7106 455.915 27.8958 463.455 27.8958 463.455C27.8958 463.455 -7.33896 466.879 -26.4004 462.63C-25.7196 419.164 -26.4004 386.673 -25.4411 378.174C-24.4819 369.674 -18.4684 317.101 -10.9078 296.74C-4.46118 287.147 51.4131 325.837 51.4131 325.837L51.4235 325.827Z" fill="#330B07"/>
<path d="M2.0369 125.631C2.0369 125.631 -2.19209 126.27 -1.90328 136.554C-1.61447 146.838 -4.20345 155.337 0.0564895 162.196C4.31643 169.055 8.71047 164.115 10.99 169.602C13.2798 175.089 15.2809 183.682 13.7337 190.438C14.9199 193.635 32.4753 189.612 32.4753 189.612C32.4753 189.612 30.5568 176.09 32.4753 170.324C34.3939 164.558 2.0369 125.631 2.0369 125.631Z" fill="#B15330"/>
<path d="M47.0605 196.779C47.0605 196.779 39.2627 183.7 25.4617 185.474C11.6607 187.258 0.964477 201.586 -1.98551 207.547C-4.93549 213.509 47.0605 196.779 47.0605 196.779Z" fill="#F2E3DA"/>
<path d="M43.3475 112.376C43.3475 112.376 56.1479 114.934 57.7879 129.467C59.4383 144.001 45.1732 161.917 49.2887 171.149C35.8487 181.938 35.6734 171.695 24.8843 175.718C14.0952 179.741 7.97862 174.893 7.24628 174.718C7.79296 164.568 -6.55469 135.419 -1.79965 120.7C2.9554 105.981 25.5341 103.423 43.3475 112.386V112.376Z" fill="#493333"/>
<path d="M44.9973 192.812C44.9973 192.812 37.4986 187.149 16.4773 194.637C-4.54385 202.136 -14.4562 216.577 -14.415 233.204C-14.3943 240.104 -14.8894 252.967 -15.302 263.467C-15.7868 276.01 -17.7775 288.459 -21.2639 300.517C-22.1097 303.436 -22.9864 306.355 -23.8632 309.006C-27.793 320.981 -34.4253 328.408 -34.1572 329.316C-28.0303 332.884 44.6156 336.113 57.2304 327.882C46.4413 300.28 48.2773 298.269 48.2773 298.269C48.2773 298.269 62.7178 296.257 64.9148 286.572C67.1118 276.886 60.8921 254.215 59.4274 238.856C57.9627 223.498 55.776 200.465 44.9869 192.791L44.9973 192.812Z" fill="#BD6A8B"/>
<path d="M-4.45046 284.94C-4.45046 284.94 -30.041 293.078 -37.7151 292.521C-45.3892 291.974 -49.5047 283.382 -53.5274 280.732C-57.5502 278.081 -64.4919 285.672 -65.8637 291.521C-67.2356 297.369 -64.6776 297.462 -62.5734 298.287C-60.4692 299.112 -51.3304 305.322 -40.2732 304.775C-29.2159 304.228 5.69913 303.774 5.69913 303.774L-4.45046 284.95V284.94Z" fill="#B15330"/>
<path d="M-3.90489 283.844L7.79189 304.813H-0.160676C-7.28808 298.377 -7.28809 285.216 -7.28809 285.216L-3.90489 283.844Z" fill="#F2E3DA"/>
<path d="M55.1172 240.183C55.2719 239.492 56.3343 239.771 56.1796 240.452C52.126 259.1 49.3101 277.987 47.7629 297.007C47.701 297.708 46.6076 297.729 46.6695 297.027C48.227 277.914 51.0533 258.925 55.1275 240.183H55.1172Z" fill="#2D2644"/>
<path d="M8.66881 304.443C15.5383 306.598 19.2722 299.13 19.984 293.561C20.7266 287.753 20.7163 281.792 21.0154 275.943C21.6343 263.916 22.2532 251.889 22.872 239.863C22.9133 239.161 24.0066 239.141 23.9654 239.842C23.2124 254.417 22.4594 269.001 21.7065 283.576C21.428 289.053 21.82 295.407 19.1381 300.399C17.0752 304.247 12.7328 306.877 8.39031 305.505C7.71986 305.299 7.98803 304.226 8.65848 304.443H8.66881Z" fill="#2D2644"/>
<path d="M-6.19458 260.947C-5.34878 264.97 -4.5855 269.013 -3.92537 273.067C-3.65719 274.697 -3.27554 276.409 -3.1105 278.101C-3.06925 278.101 -3.028 278.121 -2.97642 278.132C4.91426 281.298 10.7523 288.395 16.7142 294.181C17.2196 294.676 16.4563 295.46 15.9509 294.975C10.2263 289.416 4.50168 282.402 -3.03831 279.287C-3.00737 280.525 -3.14145 281.742 -3.56435 282.917C-3.80159 283.578 -4.87431 283.309 -4.62676 282.649C-3.35806 279.153 -4.70927 274.893 -5.31783 271.355C-5.89545 267.982 -6.54528 264.619 -7.24668 261.257C-7.39108 260.566 -6.33899 260.256 -6.19458 260.947Z" fill="#2D2644"/>
<path d="M6.74143 199.616C19.284 198.234 31.8266 196.851 44.3589 195.469C45.0603 195.387 45.0706 196.49 44.3795 196.563C31.8369 197.945 19.2943 199.327 6.76204 200.709C6.06065 200.781 6.05035 199.688 6.74143 199.616Z" fill="#2D2644"/>
<path d="M25.4821 345.816C25.4821 345.816 31.2789 380.37 27.9886 383.661C24.6982 386.951 -29.2266 387.137 -31.7847 382.567C-34.3427 377.998 -21.3669 304.238 -21.3669 304.238H-18.6232C-18.6232 304.238 -22.4602 343.96 -22.2746 344.981C-22.0889 346.002 18.6745 348.89 19.0355 344.981C19.3965 341.072 11.6915 279.266 -10.1343 286.672C-13.8063 287.735 -17.2926 288.694 -17.2926 288.694C-17.2926 288.694 -13.8579 283.041 -3.42977 283.846C6.99832 284.651 19.4996 303.041 25.4821 345.816Z" fill="#C26F55"/>
<path d="M-27.5659 351.425C-27.2977 356.17 -25.1832 360.822 -21.1502 363.524C-17.798 365.762 -13.4246 366.567 -9.18525 366.845C-8.98927 368.496 -7.60712 369.507 -5.99804 369.703C-4.19298 369.919 -3.25434 368.558 -2.76955 367C-2.76955 367 -2.76955 367 -2.76955 366.99C2.6972 366.959 8.93754 366.495 13.6926 363.741C17.9216 361.286 20.9025 357.201 22.1506 352.508C22.3362 351.827 21.2738 351.559 21.0882 352.24C19.8711 356.799 16.9417 360.719 12.7849 362.998C8.19488 365.515 2.33618 365.814 -2.79019 365.897C-8.08159 365.979 -14.3116 365.835 -19.1492 363.411C-23.7082 361.131 -26.1838 356.355 -26.4622 351.404C-26.5035 350.703 -27.5969 350.713 -27.5556 351.425H-27.5659ZM-8.07127 366.907C-6.64785 366.98 -5.24507 366.99 -3.9248 367C-4.2755 367.99 -4.85312 368.805 -6.07024 368.599C-7.01919 368.434 -7.88562 367.877 -8.08159 366.918L-8.07127 366.907Z" fill="#2D2644"/>
<path d="M35.818 111.232C38.1388 112.552 40.0676 114.347 41.5632 116.565C41.9552 117.153 41.0166 117.72 40.6246 117.132C39.2425 115.079 37.4374 113.419 35.2816 112.191C34.6731 111.841 35.1991 110.881 35.818 111.232Z" fill="#330B07"/>
<path d="M33.4145 113.037C34.6936 113.779 35.9623 114.512 37.2413 115.254C37.8499 115.605 37.3135 116.564 36.7049 116.214C35.4259 115.471 34.1572 114.739 32.8782 113.996C32.2696 113.645 32.806 112.686 33.4145 113.037Z" fill="#330B07"/>
<path d="M37.9427 150.553C39.9953 145.014 46.3285 140.207 44.575 133.771C44.3894 133.09 45.4414 132.781 45.6271 133.461C47.1434 139.031 43.2238 143.168 40.5626 147.613C37.0556 153.492 37.2826 160.424 37.5817 167.015C37.6127 167.716 36.5193 167.737 36.4884 167.036C36.2408 161.538 35.9933 155.793 37.9324 150.542L37.9427 150.553Z" fill="#330B07"/>
<path d="M28.4737 148.126C28.484 147.425 29.5877 147.404 29.5671 148.106C29.4433 154.14 29.4949 160.174 29.7218 166.208C29.7527 166.909 28.6491 166.93 28.6284 166.228C28.4015 160.194 28.35 154.16 28.4737 148.126Z" fill="#330B07"/>
<path d="M13.1461 158.088C13.765 160.224 14.4767 162.338 15.2813 164.411C15.5391 165.071 14.487 165.371 14.2291 164.721C13.4246 162.647 12.7129 160.543 12.094 158.398C11.8981 157.717 12.9501 157.408 13.1461 158.088Z" fill="#330B07"/>
<path d="M48.6076 332.996L40.8613 321.547L43.3987 335.007L48.6076 332.996Z" fill="#2D2644"/>
<path d="M202.038 359.11C202.409 363.938 208.35 403.505 206.308 424.124C204.266 444.742 209.279 522.03 207.793 532.613C206.308 543.206 193.116 571.437 192.187 573.851C191.259 576.264 220.243 575.336 220.986 573.851C221.728 572.365 217.458 548.961 217.644 539.111C217.83 529.261 236.035 491.736 237.706 470.003C239.377 448.27 231.393 436.749 234.178 424.299C236.963 411.849 244.029 375.253 241.976 364.484C228.412 352.406 202.038 359.1 202.038 359.1V359.11Z" fill="#A85F4D"/>
<path d="M195.157 380.844C195.157 380.844 178.52 410.199 177.086 416.697C202.223 463.701 200.17 495.656 204.079 507.352C207.978 519.06 221.356 515.15 223.027 519.431C224.698 523.712 214.487 548.972 214.487 548.972C214.487 548.972 196.282 510.89 192.754 506.806C189.226 502.721 147.792 431.571 146.121 418.193C144.451 404.815 152.991 362.277 152.991 362.277L195.157 380.854V380.844Z" fill="#A85F4D"/>
<path opacity="0.51" d="M150.908 373.406C150.908 373.406 159.552 388.558 189.805 390.508L196.654 378.058L150.908 373.417V373.406Z" fill="#6A330D"/>
<path opacity="0.51" d="M204.637 382.515L205.524 390.509C205.524 390.509 227.896 391.066 240.934 386.507L242.914 371.365L204.647 382.515H204.637Z" fill="#6A330D"/>
<path d="M170.888 229.128C170.888 229.128 178.19 278.793 174.725 290.056C153.301 337.865 148.969 368.705 147.597 374.894C182.522 399.288 234.787 378.36 248.289 382.692C244.947 341.454 244.142 317.916 233.147 294.017C235.282 275.069 248.041 232.955 247.546 232.212C247.051 231.469 255.096 209.303 254.23 206.013C253.363 202.609 237.324 195.172 213.198 191.088C189.083 187.003 160.676 195.255 160.264 198.813C159.851 202.361 170.877 229.118 170.877 229.118L170.888 229.128Z" fill="#FBA746"/>
<path d="M233.621 136.556C232.755 136.164 227.123 117.979 206.679 127.076C186.246 136.184 188.288 168.5 188.474 201.012C188.66 233.523 193.116 251.357 197.396 255.256C198.696 255.071 202.316 249.965 202.316 249.965C202.316 249.965 205.751 254.514 207.515 256.277C213.085 255.813 215.313 252.379 215.313 252.379C215.313 252.379 217.819 256.277 219.861 257.67C228.309 254.885 230.826 247.82 230.826 248.098C230.826 248.376 233.704 255.432 236.21 255.339C249.588 233.142 246.927 142.548 233.611 136.535L233.621 136.556Z" fill="#330B07"/>
<path d="M245.184 194.874C245.184 194.729 245.122 194.461 245.039 194.172C245.019 192.542 244.988 190.913 244.947 189.293C243.771 178.545 242.574 171.088 242.574 171.088C242.574 171.088 242.76 213.44 228.639 240.01C227.68 229.706 227.339 199.329 227.339 199.329C227.339 199.329 224.74 224.404 208.391 252.646C201.336 241.31 201.893 195.802 201.893 195.802C201.893 195.802 195.395 215.678 196.323 243.92C189.794 221.588 189.32 179.969 189.619 157.215C187.927 170.118 188.433 185.539 188.515 201C188.701 233.512 193.157 251.346 197.437 255.245C198.263 255.132 200.016 253.038 201.192 251.521C200.975 252.481 200.728 253.43 200.429 254.389C200.243 254.998 201.058 256.338 200.975 256.596C201.656 254.44 202.13 252.254 202.44 250.057C202.925 250.696 205.947 254.657 207.566 256.277C211.878 255.915 214.178 253.78 215.003 252.831C215.179 254.575 215.488 256.318 215.89 258.02C216.282 259.618 216.21 258.102 216.024 257.349C215.632 255.689 215.447 254.079 215.426 252.481C215.828 253.1 218.056 256.4 219.903 257.669C223.492 256.483 226.009 254.523 227.721 252.687C226.576 254.585 225.369 256.452 224.09 258.288C223.75 258.773 224.72 260.144 224.544 260.402C227.02 256.926 229.351 253.316 231.445 249.562C232.414 251.697 234.426 255.41 236.251 255.348C238.345 251.862 240.057 246.694 241.378 240.444C240.841 243.559 240.243 246.674 239.562 249.789C239.428 250.397 240.14 251.594 240.078 251.872C244.214 233.234 246.102 213.976 245.173 194.884L245.184 194.874Z" fill="#0C0200"/>
<path d="M232.485 141.708C232.465 141.264 231.949 139.686 231.959 139.882C232.847 161.409 227.266 182.028 222.15 202.729C222.006 203.307 222.718 204.513 222.656 204.761C228.339 184.276 233.403 163.111 232.485 141.708Z" fill="#0C0200"/>
<path d="M234.187 146.755C234.156 146.446 233.61 144.424 233.682 145.28C234.981 159.648 234.889 173.975 233.806 188.344C233.764 188.932 234.321 189.984 234.29 190.293C235.693 175.822 235.518 161.216 234.187 146.755Z" fill="#0C0200"/>
<path d="M199.015 138.77C189.628 156.315 190.949 179.182 194.291 198.192C194.404 198.852 194.889 200.131 194.641 198.687C191.516 180.121 190.381 157.975 199.52 140.832C199.778 140.348 198.932 138.914 199.015 138.77Z" fill="#0C0200"/>
<path d="M196.179 157.273C194.838 166.567 194.498 175.912 195.261 185.278C195.282 185.566 195.787 187.475 195.736 186.67C195.106 177.511 195.385 168.393 196.674 159.295C196.757 158.687 196.128 157.583 196.179 157.273Z" fill="#0C0200"/>
<path d="M219.562 126.73C214.405 131.052 212.136 139.655 210.341 145.854C208.216 153.187 206.999 160.769 206.525 168.381C205.545 183.894 207.639 199.397 210.764 214.559C211.001 215.735 211.259 215.715 211.011 214.508C207.804 198.727 205.813 182.553 207.401 166.462C208.061 159.809 209.309 153.198 211.269 146.803C213.105 140.841 215.302 133.28 220.037 129.01C220.418 128.659 219.438 126.834 219.552 126.741L219.562 126.73Z" fill="#493333"/>
<path d="M218.056 131.899C212.682 143.173 210.248 155.509 211.031 167.969C211.052 168.341 211.537 169.805 211.526 169.568C210.949 157.211 213.27 145.195 218.571 134.013C218.819 133.487 217.963 132.064 218.045 131.889L218.056 131.899Z" fill="#493333"/>
<path d="M216.932 142.607C216.23 145.238 215.725 147.899 215.529 150.612C215.488 151.2 216.055 152.283 216.014 152.582C216.323 149.921 216.767 147.311 217.458 144.722C217.623 144.113 216.86 142.876 216.932 142.607Z" fill="#493333"/>
<path d="M235.343 141.731C235.075 140.463 234.797 140.483 235.075 141.793C239.665 163.371 239.644 185.073 236.344 206.816C236.251 207.415 236.901 208.58 236.849 208.859C241.047 186.765 240.047 163.65 235.343 141.731Z" fill="#493333"/>
<path d="M213.023 127.272C208.629 127.922 204.864 130.934 202.636 134.678C202.316 135.224 203.286 136.524 203.09 136.833C205.483 132.873 209.103 130.624 213.477 129.407C213.673 129.355 213.219 127.241 213.023 127.272Z" fill="#493333"/>
<path d="M210.104 237.779C205.411 218.666 202.956 199.223 202.884 179.532C202.884 179.078 202.347 177.428 202.347 177.644C202.347 198.109 204.885 218.583 209.98 238.418C210.372 239.945 210.289 238.501 210.114 237.779H210.104Z" fill="#493333"/>
<path d="M232.63 188.34C232.146 200.119 232.001 211.909 231.723 223.699C231.712 224.163 232.269 225.865 232.28 225.638C232.6 213.817 233.033 201.986 233.157 190.155C233.157 189.732 232.641 188.113 232.63 188.34Z" fill="#493333"/>
<path d="M193.817 220.927C192.558 214.914 192.136 208.911 192.197 202.784C192.197 202.361 191.692 200.772 191.682 200.989C191.413 207.714 192.166 214.408 193.549 220.979C193.806 222.206 194.075 222.196 193.806 220.927H193.817Z" fill="#493333"/>
<path d="M170.886 229.127C170.886 229.127 136.951 255.511 136.827 258.234C136.703 260.957 157.879 287.961 164.202 289.942C170.515 291.922 171.195 278.575 175.754 277.647C176.033 280.988 175.662 287.219 175.754 287.776C176.497 288.797 186.812 285.733 186.812 285.733C188.018 288.332 179.849 290.003 176.868 294.563C173.898 299.111 172.598 301.061 170.649 300.782C167.121 307.93 164.914 304.217 161.881 302.917C158.849 301.618 115.032 277.069 109.834 259.225C109.462 251.674 159.003 199.658 160.736 198.42C168.41 207.084 170.896 229.137 170.896 229.137L170.886 229.127Z" fill="#A85F4D"/>
<path d="M254.239 206.032C253.465 205.228 246.07 230.736 246.998 234.088C252.754 242.257 266.627 259.472 265.513 263.196C264.399 266.909 242.346 289.705 239.499 289.581C236.653 289.457 233.434 286.796 232.506 285.744C231.578 284.692 224.337 284.939 224.337 284.939C224.584 287.972 229.412 287.105 230.216 288.9C231.021 290.695 231.299 297.255 236.776 302.876C236.539 305.156 239.097 308.818 241.48 307.662C245.42 305.744 245.75 301.412 247.545 300.36C249.34 299.307 289.402 273.851 289.03 265.929C288.659 258.008 260.913 213.046 254.229 206.053L254.239 206.032Z" fill="#A85F4D"/>
<path d="M122.058 240.926C125.173 244.279 130.134 249.281 137.736 256.883C143.069 250.787 170.918 229.137 170.918 229.137C170.918 229.137 168.443 207.095 160.758 198.42C159.593 199.255 136.735 223.123 122.047 240.926H122.058Z" fill="#FBA746"/>
<path d="M265.328 263.609C270.97 261.907 278.85 259.256 285.297 256.018C277.417 239.947 259.449 211.479 254.24 206.023C253.466 205.218 246.071 230.726 246.999 234.078C252.754 242.248 266.628 259.463 265.514 263.186C265.472 263.31 265.421 263.454 265.338 263.609H265.328Z" fill="#FBA746"/>
<path d="M228.886 333.633C229.237 333.251 228.309 331.766 228.453 331.611C222.048 338.388 215.673 345.196 209.216 351.931C203.296 358.11 197.055 364.278 189.732 368.796C189.35 369.033 190.165 370.962 190.258 371.271C190.258 371.292 190.258 371.302 190.258 371.323C202.089 364.133 214.631 360.121 228.154 357.553C228.319 357.522 227.917 355.211 227.659 355.242C218.407 356.191 209.268 358.986 200.738 362.916C210.825 353.922 219.686 343.525 228.876 333.643L228.886 333.633Z" fill="#DB8509"/>
<path d="M229.35 369.723C220.758 371.827 212.238 373.797 203.419 374.767C195.766 375.612 184.595 377.417 178.169 371.847C177.633 371.383 176.405 370.661 177.56 371.672C183.099 376.51 189.763 377.376 196.942 377.036C208.37 376.499 220.17 374.746 231.062 371.167C230.877 371.229 229.866 369.599 229.35 369.733V369.723Z" fill="#DB8509"/>
<path d="M218.881 286.641C218.469 286.136 217.943 285.393 217.479 285.465C214.405 285.733 211.641 285.445 208.876 284.485C211.228 281.267 214.982 280.751 218.716 279.741C218.52 279.792 217.479 278.204 216.942 278.245C212.93 278.596 208.608 279.854 206.442 283.495C206.277 283.774 208.01 285.001 208.247 285.114C209.402 285.671 210.557 286.105 211.733 286.445C204.833 287.889 198.335 290.261 192.167 294.026C192.197 294.006 193.507 295.656 193.858 295.439C201.615 290.818 210.392 287.693 219.449 287.095C219.273 286.94 219.088 286.796 218.912 286.641H218.881Z" fill="#DB8509"/>
<path opacity="0.51" d="M168.329 301.648C167.999 301.308 167.566 300.905 167.133 300.709C166.38 300.359 165.627 299.977 164.905 299.564C164.513 299.338 164.121 299.1 163.739 298.853C163.553 298.729 162.584 297.832 163.007 298.389C162.708 297.997 162.274 297.646 161.872 297.378C161.779 297.316 161.191 296.924 161.449 297.264C162.212 298.265 163.316 298.997 164.348 299.699C165.678 300.596 167.071 301.38 168.525 302.061C168.927 302.246 168.391 301.72 168.339 301.669L168.329 301.648Z" fill="#6A330D"/>
<path opacity="0.51" d="M250.65 292.181C248.505 293.986 246.556 296.07 244.678 298.143C244.4 298.452 244.235 298.947 244.101 299.339C244.059 299.463 243.905 300.165 243.967 300.092C245.885 297.988 247.927 296.049 249.959 294.058C250.238 293.78 250.393 293.274 250.516 292.913C250.558 292.81 250.733 292.109 250.65 292.181Z" fill="#6A330D"/>
<path opacity="0.51" d="M116.951 263.112C114.857 261.957 113.114 260.358 111.784 258.357C111.753 258.316 111.278 259.264 111.247 259.337C111.165 259.543 110.804 260.193 110.959 260.42C112.279 262.421 114.022 264.02 116.126 265.175C116.229 265.226 117.209 263.246 116.962 263.112H116.951Z" fill="#6A330D"/>
<path opacity="0.51" d="M286.896 263.784C286.679 264.217 286.452 264.723 286.37 265.218C286.205 266.198 284.977 267.157 284.286 267.807C283.977 268.096 283.822 268.663 283.688 269.045C283.647 269.158 283.472 269.901 283.554 269.829C285.39 268.106 286.793 266.033 287.226 263.495C287.298 263.052 286.937 263.743 286.906 263.795L286.896 263.784Z" fill="#6A330D"/>
<path d="M167.916 197.544C167.916 197.544 166.761 199.307 167.081 199.606C173.868 205.94 176.653 215.563 174.023 224.506C173.775 225.341 174.693 223.423 174.786 223.113C177.488 213.923 174.951 204.093 167.916 197.533V197.544Z" fill="#DB8509"/>
<path d="M254.229 208.887C254.26 209.155 253.301 210.228 253.363 210.846C253.847 215.746 251.485 219.903 248.814 223.802C248.556 224.173 248.102 225.813 248.216 225.638C251.599 220.697 254.848 215.096 254.239 208.887H254.229Z" fill="#DB8509"/>
</g>
</g>
<defs>
<clipPath id="clip0_3075_16778">
<rect width="1007.46" height="391.053" fill="white" transform="translate(-288.729 0.947266)"/>
</clipPath>
</defs>
</svg>
