<svg width="430" height="366" viewBox="0 0 430 366" fill="none" xmlns="http://www.w3.org/2000/svg">
<path d="M0 43.9722C0 40.6739 2.67386 38 5.97222 38H23.0278C26.3261 38 29 40.6739 29 43.9722V366H0V43.9722Z" fill="#EDB4CA"/>
<path d="M325 5.97222C325 2.67385 327.674 0 330.972 0H348.028C351.326 0 354 2.67386 354 5.97222V366H325V5.97222Z" fill="#EDB4CA"/>
<path d="M29 156.972C29 153.674 31.6739 151 34.9722 151H51.0278C54.3261 151 57 153.674 57 156.972V366H29V156.972Z" fill="#EDB4CA"/>
<path d="M354 127.972C354 124.674 356.674 122 359.972 122H377.028C380.326 122 383 124.674 383 127.972V366H354V127.972Z" fill="#EDB4CA"/>
<path d="M56 98.9722C56 95.6739 58.6739 93 61.9722 93H79.0278C82.3261 93 85 95.6739 85 98.9722V366H56V98.9722Z" fill="#EDB4CA"/>
<path d="M382 173.972C382 170.674 384.674 168 387.972 168H405.028C408.326 168 411 170.674 411 173.972V366H382V173.972Z" fill="#EDB4CA"/>
<path d="M411 117.972C411 114.674 413.674 112 416.972 112H424.028C427.326 112 430 114.674 430 117.972V366H411V117.972Z" fill="#EDB4CA"/>
<path d="M84 156.972C84 153.674 86.6739 151 89.9722 151H142.028C145.326 151 148 153.674 148 156.972V366H84V156.972Z" fill="#EDB4CA"/>
<path d="M170 138.972C170 135.674 172.674 133 175.972 133H212.028C215.326 133 218 135.674 218 138.972V366H170V138.972Z" fill="#EDB4CA"/>
<path d="M148 197.972C148 194.674 150.674 192 153.972 192H164.028C167.326 192 170 194.674 170 197.972V366H148V197.972Z" fill="#EDB4CA"/>
<path d="M218 172.972C218 169.674 220.674 167 223.972 167H244.028C247.326 167 250 169.674 250 172.972V366H218V172.972Z" fill="#EDB4CA"/>
<path d="M249 137.972C249 134.674 251.674 132 254.972 132H275.028C278.326 132 281 134.674 281 137.972V366H249V137.972Z" fill="#EDB4CA"/>
<path d="M281 98.9722C281 95.6739 283.674 93 286.972 93H319.028C322.326 93 325 95.6739 325 98.9722V366H281V98.9722Z" fill="#EDB4CA"/>
</svg>
