<svg width="1440" height="554" viewBox="0 0 1440 554" fill="none" xmlns="http://www.w3.org/2000/svg">
<path d="M0 78C0 66.9543 8.9543 58 20 58H76C87.0457 58 96 66.9543 96 78V554H0V78Z" fill="#EDB4CA"/>
<path d="M1090 20C1090 8.95432 1098.95 0 1110 0H1166C1177.05 0 1186 8.95431 1186 20V554H1090V20Z" fill="#EDB4CA"/>
<path d="M96 248C96 236.954 104.954 228 116 228H172C183.046 228 192 236.954 192 248V554H96V248Z" fill="#EDB4CA"/>
<path d="M1186 205C1186 193.954 1194.95 185 1206 185H1262C1273.05 185 1282 193.954 1282 205V554H1186V205Z" fill="#EDB4CA"/>
<path d="M189 160C189 148.954 197.954 140 209 140H265C276.046 140 285 148.954 285 160V554H189V160Z" fill="#EDB4CA"/>
<path d="M1279 274C1279 262.954 1287.95 254 1299 254H1355C1366.05 254 1375 262.954 1375 274V554H1279V274Z" fill="#EDB4CA"/>
<path d="M1375 190C1375 178.954 1383.95 170 1395 170H1420C1431.05 170 1440 178.954 1440 190V554H1375V190Z" fill="#EDB4CA"/>
<path d="M282 248C282 236.954 290.954 228 302 228H474C485.046 228 494 236.954 494 248V554H282V248Z" fill="#EDB4CA"/>
<path d="M568 221C568 209.954 576.954 201 588 201H710C721.046 201 730 209.954 730 221V554H568V221Z" fill="#EDB4CA"/>
<path d="M494 310C494 298.954 502.954 290 514 290H548C559.046 290 568 298.954 568 310V554H494V310Z" fill="#EDB4CA"/>
<path d="M730 273C730 261.954 738.954 253 750 253H816C827.046 253 836 261.954 836 273V554H730V273Z" fill="#EDB4CA"/>
<path d="M834 219C834 207.954 842.954 199 854 199H920C931.046 199 940 207.954 940 219V554H834V219Z" fill="#EDB4CA"/>
<path d="M940 160C940 148.954 948.954 140 960 140H1070C1081.05 140 1090 148.954 1090 160V554H940V160Z" fill="#EDB4CA"/>
</svg>
