<svg width="100" height="42" viewBox="0 0 100 42" fill="none" xmlns="http://www.w3.org/2000/svg">
<path d="M14.042 6.80859H21.0137C24.8641 6.80859 27.9854 9.92996 27.9854 13.7803C27.9854 17.6307 24.8641 20.752 21.0137 20.752H14.042V6.80859Z" fill="#015A2F"/>
<path d="M14.0423 34.7943H7.02116C3.14348 34.7943 0 31.6508 0 27.7731C0 23.8954 3.14348 20.752 7.02116 20.752H14.0423V34.7943Z" fill="#015A2F"/>
<path d="M14.042 34.7941C14.042 27.9672 19.5763 22.334 26.4032 22.334V34.7941H14.042Z" fill="#015A2F"/>
<path d="M14.0423 6.80859C14.0423 14.5093 7.70075 20.752 0 20.752V6.80859H14.0423Z" fill="#015A2F"/>
<path d="M33.543 29.2794L45.265 13.1988H51.5389L39.7837 29.2794H33.543ZM33.543 32.9116V29.2794L36.977 28.4539H51.2418V32.9116H33.543ZM34.2034 14.0573V9.59961H51.5389V13.1988L48.0389 14.0573H34.2034ZM60.3859 33.2418C58.911 33.2418 57.5903 32.8786 56.4236 32.1522C55.2789 31.4257 54.3655 30.4351 53.6829 29.1804C53.0228 27.9256 52.6923 26.4947 52.6923 24.8878C52.6923 23.2808 53.0228 21.85 53.6829 20.5952C54.3655 19.3405 55.2789 18.3499 56.4236 17.6234C57.5903 16.897 58.911 16.5338 60.3859 16.5338C61.4648 16.5338 62.4335 16.7429 63.2916 17.1612C64.1721 17.5794 64.8875 18.1628 65.438 18.9112C65.9884 19.6376 66.2965 20.4741 66.3628 21.4207V28.3549C66.2965 29.3014 65.9884 30.1489 65.438 30.8974C64.9099 31.6238 64.2055 32.1962 63.325 32.6144C62.4445 33.0327 61.4648 33.2418 60.3859 33.2418ZM61.4094 28.685C62.4884 28.685 63.3579 28.3328 64.018 27.6285C64.6786 26.902 65.0087 25.9884 65.0087 24.8878C65.0087 24.1393 64.8546 23.4789 64.5465 22.9066C64.2603 22.3342 63.842 21.894 63.2916 21.5858C62.7636 21.2556 62.1473 21.0905 61.4428 21.0905C60.7383 21.0905 60.1106 21.2556 59.5607 21.5858C59.0322 21.894 58.6029 22.3342 58.2729 22.9066C57.9647 23.4789 57.8107 24.1393 57.8107 24.8878C57.8107 25.6142 57.9647 26.2636 58.2729 26.836C58.581 27.4083 59.0103 27.8596 59.5607 28.1898C60.1106 28.52 60.7274 28.685 61.4094 28.685ZM64.8107 32.9116V28.586L65.5701 24.6897L64.8107 20.7933V16.864H69.7636V32.9116H64.8107ZM73.3209 32.9116V16.864H78.373V32.9116H73.3209ZM78.373 24.0953L76.2595 22.4443C76.6778 20.5732 77.3823 19.1203 78.373 18.0857C79.3632 17.0511 80.7393 16.5338 82.5003 16.5338C83.2706 16.5338 83.9421 16.6549 84.5145 16.897C85.1088 17.1171 85.6263 17.4693 86.0666 17.9536L83.0617 21.7509C82.8413 21.5087 82.5666 21.3217 82.236 21.1895C81.906 21.0575 81.5315 20.9915 81.1132 20.9915C80.2771 20.9915 79.6055 21.2556 79.0994 21.7839C78.6148 22.2902 78.373 23.0607 78.373 24.0953ZM89.8519 32.9116V10.227H94.904V32.9116H89.8519ZM86.2197 21.1565V16.864H98.5361V21.1565H86.2197Z" fill="#040404"/>
</svg>
